SplineFontDB: 3.0
FontName: OxygenSans-Bold
FullName: Oxygen Sans Bold
FamilyName: Oxygen Sans
Weight: Bold
Copyright: Copyright 2009-2012 vernon adams.
Version: 0
ItalicAngle: 0
UnderlinePosition: -102
UnderlineWidth: 102
Ascent: 1536
Descent: 512
sfntRevision: 0x00004ccd
UFOAscent: 1501
UFODescent: -500
LayerCount: 2
Layer: 0 0 "Back"  1
Layer: 1 0 "Fore"  0
FSType: 0
OS2Version: 0
OS2_WeightWidthSlopeOnly: 0
OS2_UseTypoMetrics: 0
CreationTime: 1344235851
ModificationTime: 1344237073
PfmFamily: 33
TTFWeight: 700
TTFWidth: 5
LineGap: 0
VLineGap: 0
OS2TypoAscent: 0
OS2TypoAOffset: 1
OS2TypoDescent: -512
OS2TypoDOffset: 0
OS2TypoLinegap: 0
OS2WinAscent: 1901
OS2WinAOffset: 0
OS2WinDescent: 483
OS2WinDOffset: 0
HheadAscent: 2306
HheadAOffset: 0
HheadDescent: -623
HheadDOffset: 0
OS2SubXSize: 1331
OS2SubYSize: 1229
OS2SubXOff: 0
OS2SubYOff: 154
OS2SupXSize: 1331
OS2SupYSize: 1229
OS2SupXOff: 0
OS2SupYOff: 717
OS2StrikeYSize: 102
OS2StrikeYPos: 590
OS2Vendor: 'newt'
Lookup: 258 0 0 "'kern' Horizontal Kerning in Latin lookup 0"  {"'kern' Horizontal Kerning in Latin lookup 0 subtable"  } ['kern' ('latn' <'dflt' > ) ]
MarkAttachClasses: 1
DEI: 91125
LangName: 1033 "" "" "" "" "" "" "" "" "" "" "" "" "" "" "http://scripts.sil.org/OFL" 
PickledData: "(dp1
S'com.typemytype.robofont.compileSettings.autohint'
p2
I0
sS'com.typemytype.robofont.compileSettings.generateFormat'
p3
I0
sS'public.glyphOrder'
p4
(S'A'
S'Agrave'
S'Aacute'
S'Acircumflex'
S'Atilde'
S'Adieresis'
S'Aring'
S'Amacron'
S'Abreve'
S'Aogonek'
S'uni01CD'
S'uni01DE'
S'Aringacute'
S'uni0200'
S'uni0202'
S'uni0226'
S'B'
S'uni1E02'
S'C'
S'Ccedilla'
S'Cacute'
S'Ccircumflex'
S'Cdotaccent'
S'Ccaron'
S'D'
S'Dcaron'
S'uni1E0A'
S'E'
S'Egrave'
S'Eacute'
S'Ecircumflex'
S'Edieresis'
S'Emacron'
S'Ebreve'
S'Edotaccent'
S'Eogonek'
S'Ecaron'
S'uni0204'
S'uni0206'
S'uni0228'
S'uni1EBC'
S'F'
S'uni1E1E'
S'G'
S'Gcircumflex'
S'Gbreve'
S'Gdotaccent'
S'Gcommaaccent'
S'Gcaron'
S'uni01F4'
S'H'
S'Hcircumflex'
S'uni021E'
S'I'
S'Igrave'

StartChar: A
Encoding: 65 65 0
Width: 1194
VWidth: 19
Flags: HW
LayerCount: 2
Fore
SplineSet
1225 0 m 1
 747 1342 l 1
 472 1342 l 1
 -12 0 l 1
 264 0 l 1
 390 368 l 1
 828 368 l 1
 955 0 l 1
 1225 0 l 1
457 577 m 1
 479 647 580 967 611 1064 c 1
 643 960 740 642 760 577 c 1
 457 577 l 1
EndSplineSet
EndChar

StartChar: AE
Encoding: 198 198 1
Width: 1781
VWidth: 19
Flags: HW
LayerCount: 2
Fore
SplineSet
781 1355 m 1
 23 0 l 1
 316 0 l 1
 495 334 l 1
 944 334 l 1
 971 0 l 1
 1709 0 l 1
 1723 194 l 1
 1221 194 l 1
 1188 592 l 1
 1655 592 l 1
 1655 785 l 1
 1168 785 l 1
 1141 1161 l 1
 1676 1161 l 1
 1692 1355 l 1
 781 1355 l 1
928 538 m 1
 589 538 l 1
 887 1087 l 1
 928 538 l 1
EndSplineSet
EndChar

StartChar: Alphatonos
Encoding: 902 902 9
Width: 407
VWidth: 19
Flags: HW
LayerCount: 2
Fore
SplineSet
342 610 m 0
 342 673 300 737 215 737 c 0
 131 737 87 673 87 610 c 0
 87 547 131 483 215 483 c 0
 300 483 342 547 342 610 c 0
EndSplineSet
EndChar

StartChar: B
Encoding: 66 66 15
Width: 1169
VWidth: 19
Flags: HW
PickledData: "(dp1
S'org.robofab.postScriptHintData'
p2
(dp3
sS'com.typemytype.robofont.layerData'
p4
(dp5
s."
LayerCount: 2
Fore
SplineSet
1073 1000 m 0
 1073 1254 884 1342 554 1342 c 2
 134 1342 l 1
 134 0 l 1
 623 0 l 0
 924 0 1121 133 1121 393 c 0
 1121 551 1050 665 907 715 c 1
 1051 783 1073 919 1073 1000 c 0
586 604 m 0
 771 604 854 554 854 412 c 0
 854 270 769 210 592 210 c 0
 396 210 l 1
 396 604 l 1
 586 604 l 0
541 1133 m 0
 727 1133 814 1104 814 967 c 0
 814 845 740 804 589 804 c 0
 396 804 l 1
 396 1133 l 1
 541 1133 l 0
EndSplineSet
EndChar

StartChar: C
Encoding: 67 67 17
Width: 1141
VWidth: 19
Flags: HW
LayerCount: 2
Fore
SplineSet
1111 1253 m 0
 993 1331 856 1361 720 1361 c 0
 345 1361 83 1091 83 677 c 0
 83 240 329 -17 706 -17 c 0
 842 -17 970 4 1085 72 c 1
 1091 75 l 1
 1055 286 l 1
 1043 279 l 0
 937 225 829 198 725 198 c 0
 486 198 352 367 352 671 c 0
 352 962 494 1145 725 1145 c 0
 846 1145 938 1106 1025 1053 c 0
 1034 1048 l 1
 1117 1249 l 1
 1111 1253 l 0
EndSplineSet
EndChar

StartChar: D
Encoding: 68 68 24
Width: 1331
VWidth: 19
Flags: HW
LayerCount: 2
Fore
SplineSet
531 1120 m 0
 839 1120 998 992 998 671 c 0
 998 377 847 224 557 224 c 0
 397 224 l 1
 397 1120 l 1
 531 1120 l 0
1265 676 m 0
 1265 1130 969 1342 520 1342 c 2
 136 1342 l 1
 136 0 l 1
 543 0 l 0
 986 0 1265 238 1265 676 c 0
EndSplineSet
EndChar

StartChar: Delta
Encoding: 916 916 26
Width: 1110
VWidth: 19
Flags: HW
LayerCount: 2
Fore
SplineSet
-16 0 m 1
 1146 0 l 1
 675 1375 l 1
 455 1375 l 1
 -16 0 l 1
265 187 m 1
 566 1131 l 1
 872 187 l 1
 265 187 l 1
EndSplineSet
EndChar

StartChar: E
Encoding: 69 69 27
Width: 1009
VWidth: 19
Flags: HW
PickledData: "(dp1
S'org.robofab.postScriptHintData'
p2
(dp3
sS'com.typemytype.robofont.layerData'
p4
(dp5
s."
LayerCount: 2
Fore
SplineSet
134 0 m 1
 946 0 l 1
 948 213 l 1
 396 213 l 1
 396 595 l 1
 900 595 l 1
 900 805 l 1
 396 805 l 1
 396 1129 l 1
 927 1129 l 1
 938 1342 l 1
 134 1342 l 1
 134 0 l 1
EndSplineSet
EndChar

StartChar: Eng
Encoding: 330 330 36
Width: 1246
VWidth: 19
Flags: HW
LayerCount: 2
Fore
SplineSet
629 -75 m 1
 649 -271 l 1
 657 -272 l 0
 684 -275 724 -275 730 -275 c 0
 1074 -275 1171 -148 1171 143 c 0
 1171 874 l 0
 1171 1177 1041 1363 752 1363 c 0
 610 1363 452 1297 359 1195 c 1
 337 1340 l 1
 110 1340 l 1
 111 0 l 1
 369 0 l 1
 369 963 l 1
 448 1099 608 1155 714 1155 c 0
 861 1155 913 1077 913 864 c 0
 913 139 l 0
 913 -27 893 -79 734 -79 c 0
 729 -79 669 -78 641 -76 c 0
 629 -75 l 1
EndSplineSet
EndChar

StartChar: Epsilontonos
Encoding: 904 904 39
Width: 407
VWidth: 19
Flags: HW
LayerCount: 2
Fore
SplineSet
342 610 m 0
 342 673 300 737 215 737 c 0
 131 737 87 673 87 610 c 0
 87 547 131 483 215 483 c 0
 300 483 342 547 342 610 c 0
EndSplineSet
EndChar

StartChar: Etatonos
Encoding: 905 905 41
Width: 407
VWidth: 19
Flags: HW
LayerCount: 2
Fore
SplineSet
342 610 m 0
 342 673 300 737 215 737 c 0
 131 737 87 673 87 610 c 0
 87 547 131 483 215 483 c 0
 300 483 342 547 342 610 c 0
EndSplineSet
EndChar

StartChar: Eth
Encoding: 208 208 42
Width: 1340
VWidth: 19
Flags: HW
LayerCount: 2
Fore
SplineSet
484 1135 m 0
 842 1135 1027 1025 1027 669 c 0
 1027 372 862 211 565 211 c 0
 367 211 l 1
 367 590 l 1
 542 590 l 1
 542 772 l 1
 367 772 l 1
 367 1135 l 1
 484 1135 l 0
-1 768 m 1
 -1 586 l 1
 110 586 l 1
 110 1 l 1
 549 1 l 0
 984 1 1288 230 1288 668 c 0
 1288 1163 948 1340 467 1340 c 0
 110 1340 l 1
 110 768 l 1
 -1 768 l 1
EndSplineSet
EndChar

StartChar: Euro
Encoding: 8364 8364 43
Width: 1061
VWidth: 19
Flags: HW
LayerCount: 2
Fore
SplineSet
947 1086 m 0
 948 1084 949 1082 950 1080 c 2
 953 1076 l 1
 970 1084 l 1
 968 1089 l 0
 968 1090 967 1092 967 1094 c 0
 961 1123 978 1239 943 1247 c 1
 810 1309 692 1288 589 1220 c 1
 358 1218 214 1060 170 878 c 1
 83 854 l 1
 89 713 l 1
 89 713 l 0
 91 695 159 686 172 683 c 1
 172 642 l 1
 90 642 l 1
 64 467 l 1
 190 467 l 1
 232 216 376 -8 686 -8 c 0
 812 -8 908 29 993 89 c 0
 998 91 l 1
 998 301 l 1
 981 289 l 0
 893 218 799 182 710 182 c 0
 561 182 449 288 412 467 c 1
 862 467 l 1
 886 642 l 1
 392 642 l 1
 392 658 392 681 392 696 c 1
 417 699 492 701 502 704 c 1
 901 728 l 1
 796 874 l 1
 791 930 552 957 499 966 c 1
 538 1090 657 1155 772 1141 c 0
 772 1141 l 1
 773 1141 l 0
 839 1141 902 1145 947 1086 c 0
EndSplineSet
EndChar

StartChar: F
Encoding: 70 70 44
Width: 957
VWidth: 19
Flags: HW
PickledData: "(dp1
S'org.robofab.postScriptHintData'
p2
(dp3
sS'com.typemytype.robofont.layerData'
p4
(dp5
s."
LayerCount: 2
Fore
SplineSet
134 0 m 1
 394 0 l 1
 394 562 l 1
 883 562 l 1
 883 771 l 1
 394 771 l 1
 394 1129 l 1
 909 1129 l 1
 918 1342 l 1
 134 1342 l 1
 134 0 l 1
EndSplineSet
EndChar

StartChar: G
Encoding: 71 71 45
Width: 1289
VWidth: 19
Flags: HW
LayerCount: 2
Fore
SplineSet
1166 1257 m 0
 1048 1327 909 1361 755 1361 c 0
 333 1361 83 1080 83 672 c 0
 83 248 322 -17 722 -17 c 0
 897 -17 1034 17 1186 80 c 0
 1192 82 l 1
 1192 727 l 1
 676 727 l 1
 675 519 l 1
 945 519 l 1
 945 234 l 1
 882 211 811 197 732 197 c 0
 477 197 352 383 352 670 c 0
 352 964 505 1145 760 1145 c 0
 876 1145 986 1108 1077 1058 c 0
 1087 1053 l 1
 1174 1253 l 1
 1166 1257 l 0
EndSplineSet
EndChar

StartChar: H
Encoding: 72 72 51
Width: 1337
VWidth: 19
Flags: HW
PickledData: "(dp1
S'org.robofab.postScriptHintData'
p2
(dp3
sS'com.typemytype.robofont.layerData'
p4
(dp5
s."
LayerCount: 2
Fore
SplineSet
134 0 m 1
 396 0 l 1
 396 590 l 1
 956 590 l 1
 956 0 l 1
 1219 0 l 1
 1219 1342 l 1
 956 1342 l 1
 956 799 l 1
 396 799 l 1
 396 1342 l 1
 134 1342 l 1
 134 0 l 1
EndSplineSet
EndChar

StartChar: Hbar
Encoding: 294 294 52
Width: 1311
VWidth: 19
Flags: HW
LayerCount: 2
Fore
SplineSet
110 0 m 1
 367 0 l 1
 367 595 l 1
 962 595 l 1
 962 0 l 1
 1220 0 l 1
 1220 1068 l 1
 1295 1068 l 1
 1295 1205 l 1
 1220 1205 l 1
 1220 1335 l 1
 962 1335 l 1
 962 1205 l 1
 367 1205 l 1
 367 1335 l 1
 110 1335 l 1
 110 1205 l 1
 35 1205 l 1
 35 1068 l 1
 110 1068 l 1
 110 0 l 1
367 788 m 1
 367 1068 l 1
 962 1068 l 1
 962 788 l 1
 367 788 l 1
EndSplineSet
EndChar

StartChar: I
Encoding: 73 73 54
Width: 527
VWidth: 19
Flags: HW
LayerCount: 2
Fore
SplineSet
402 1342 m 1
 141 1342 l 1
 141 0 l 1
 402 0 l 1
 402 1342 l 1
EndSplineSet
EndChar

StartChar: Iotatonos
Encoding: 906 906 66
Width: 407
VWidth: 19
Flags: HW
LayerCount: 2
Fore
SplineSet
342 610 m 0
 342 673 300 737 215 737 c 0
 131 737 87 673 87 610 c 0
 87 547 131 483 215 483 c 0
 300 483 342 547 342 610 c 0
EndSplineSet
EndChar

StartChar: J
Encoding: 74 74 68
Width: 556
VWidth: 19
Flags: HW
LayerCount: 2
Fore
SplineSet
-70 -77 m 0
 -82 -75 l 1
 -70 -285 l 1
 -63 -287 l 0
 -39 -292 -7 -293 23 -293 c 0
 339 -293 443 -153 443 144 c 0
 443 1346 l 1
 180 1346 l 1
 180 126 l 0
 180 -21 153 -84 21 -84 c 0
 -2 -84 -43 -82 -70 -77 c 0
EndSplineSet
EndChar

StartChar: K
Encoding: 75 75 70
Width: 1179
VWidth: 19
Flags: HW
PickledData: "(dp1
S'org.robofab.postScriptHintData'
p2
(dp3
sS'com.typemytype.robofont.layerData'
p4
(dp5
s."
LayerCount: 2
Fore
SplineSet
134 0 m 1
 396 0 l 1
 396 6 l 0
 396 176 396 347 396 516 c 1
 426 541 454 565 483 589 c 1
 899 0 l 1
 1206 0 l 1
 680 737 l 1
 1176 1342 l 1
 864 1342 l 1
 862 1334 l 1
 751 1195 512 918 396 765 c 1
 396 1342 l 1
 134 1342 l 1
 134 0 l 1
EndSplineSet
EndChar

StartChar: L
Encoding: 76 76 73
Width: 937
VWidth: 19
Flags: HW
PickledData: "(dp1
S'org.robofab.postScriptHintData'
p2
(dp3
sS'com.typemytype.robofont.layerData'
p4
(dp5
s."
LayerCount: 2
Fore
SplineSet
134 0 m 1
 926 0 l 1
 933 213 l 1
 396 213 l 1
 396 1342 l 1
 134 1342 l 1
 134 0 l 1
EndSplineSet
EndChar

StartChar: Lambda
Encoding: 923 923 75
Width: 1110
VWidth: 19
Flags: HW
LayerCount: 2
Fore
SplineSet
-17 0 m 1
 170 0 l 1
 565 1155 l 1
 964 0 l 1
 1146 0 l 1
 652 1370 l 1
 476 1370 l 1
 -17 0 l 1
EndSplineSet
EndChar

StartChar: Lslash
Encoding: 321 321 79
Width: 885
VWidth: 19
Flags: HW
LayerCount: 2
Fore
SplineSet
649 1029 m 1
 648 1030 646 1032 646 1032 c 1
 366 869 l 1
 366 1340 l 1
 111 1340 l 1
 111 714 l 1
 -24 634 l 1
 -24 443 l 1
 111 524 l 1
 111 0 l 1
 898 0 l 1
 913 203 l 1
 366 203 l 1
 366 678 l 1
 649 845 l 1
 649 1029 l 1
EndSplineSet
EndChar

StartChar: M
Encoding: 77 77 80
Width: 1621
VWidth: 19
Flags: HW
LayerCount: 2
Fore
SplineSet
135 1342 m 1
 135 0 l 1
 371 0 l 1
 371 655 l 1
 365 974 l 1
 379 934 l 1
 703 89 l 1
 923 89 l 1
 1254 929 l 1
 1267 968 l 1
 1261 658 l 1
 1261 0 l 1
 1505 0 l 1
 1505 1342 l 1
 1206 1342 l 1
 820 407 l 1
 436 1342 l 1
 135 1342 l 1
EndSplineSet
EndChar

StartChar: N
Encoding: 78 78 82
Width: 1367
VWidth: 19
Flags: HW
LayerCount: 2
Fore
SplineSet
406 1342 m 1
 134 1342 l 1
 134 0 l 1
 374 0 l 1
 374 669 l 0
 374 690 370 883 367 965 c 1
 392 925 l 0
 974 0 l 1
 1249 0 l 1
 1249 1342 l 1
 1009 1342 l 1
 1009 671 l 0
 1009 663 1013 461 1014 384 c 1
 991 419 l 1
 406 1342 l 1
EndSplineSet
EndChar

StartChar: O
Encoding: 79 79 88
Width: 1431
VWidth: 19
Flags: HW
PickledData: "(dp1
S'org.robofab.postScriptHintData'
p2
(dp3
sS'com.typemytype.robofont.layerData'
p4
(dp5
s."
LayerCount: 2
Fore
SplineSet
355 669 m 0
 355 967 478 1146 725 1146 c 0
 971 1146 1093 969 1093 669 c 0
 1093 373 972 197 724 197 c 0
 476 197 355 374 355 669 c 0
1364 671 m 0
 1364 1105 1115 1361 724 1361 c 0
 333 1361 83 1107 83 671 c 0
 83 239 330 -17 723 -17 c 0
 1115 -17 1364 241 1364 671 c 0
EndSplineSet
EndChar

StartChar: OE
Encoding: 338 338 89
Width: 1922
VWidth: 19
Flags: HW
LayerCount: 2
Fore
SplineSet
1030 1278 m 1
 945 1332 844 1363 722 1363 c 0
 349 1363 68 1073 65 676 c 0
 65 274 338 -17 727 -17 c 0
 842 -17 954 19 1030 67 c 1
 1030 4 l 1
 1887 4 l 1
 1905 208 l 1
 1277 208 l 1
 1277 596 l 1
 1835 596 l 1
 1835 798 l 1
 1277 798 l 1
 1277 1133 l 1
 1861 1133 l 1
 1879 1338 l 1
 1030 1338 l 1
 1030 1278 l 1
722 1160 m 0
 863 1160 966 1111 1030 1048 c 1
 1030 289 l 1
 969 235 863 187 725 187 c 0
 451 188 318 415 318 672 c 0
 320 928 461 1160 722 1160 c 0
EndSplineSet
EndChar

StartChar: Omegatonos
Encoding: 911 911 98
Width: 407
VWidth: 19
Flags: HW
LayerCount: 2
Fore
SplineSet
342 610 m 0
 342 673 300 737 215 737 c 0
 131 737 87 673 87 610 c 0
 87 547 131 483 215 483 c 0
 300 483 342 547 342 610 c 0
EndSplineSet
EndChar

StartChar: Omicrontonos
Encoding: 908 908 100
Width: 407
VWidth: 19
Flags: HW
LayerCount: 2
Fore
SplineSet
342 610 m 0
 342 673 300 737 215 737 c 0
 131 737 87 673 87 610 c 0
 87 547 131 483 215 483 c 0
 300 483 342 547 342 610 c 0
EndSplineSet
EndChar

StartChar: Oslash
Encoding: 216 216 101
Width: 1435
VWidth: 19
Flags: HW
LayerCount: 2
Fore
SplineSet
65 678 m 0
 65 381 196 161 405 54 c 1
 324 -134 l 1
 429 -179 l 1
 512 10 l 1
 579 -9 650 -18 725 -18 c 0
 1116 -18 1388 247 1388 676 c 0
 1388 972 1264 1186 1065 1296 c 1
 1145 1486 l 1
 1034 1530 l 1
 954 1344 l 1
 883 1366 810 1377 729 1377 c 0
 342 1377 65 1115 65 678 c 0
329 682 m 0
 329 959 461 1158 728 1158 c 0
 779 1158 828 1150 866 1137 c 1
 496 278 l 1
 384 359 329 502 329 682 c 0
601 212 m 1
 971 1065 l 1
 1077 982 1128 840 1128 666 c 0
 1128 386 995 194 728 194 c 0
 681 194 636 201 601 212 c 1
EndSplineSet
EndChar

StartChar: P
Encoding: 80 80 104
Width: 1075
VWidth: 19
Flags: HW
PickledData: "(dp1
S'org.robofab.postScriptHintData'
p2
(dp3
sS'com.typemytype.robofont.layerData'
p4
(dp5
s."
LayerCount: 2
Fore
SplineSet
1075 939 m 0
 1075 1225 869 1346 570 1346 c 2
 129 1346 l 1
 129 0 l 1
 387 0 l 1
 387 509 l 1
 454 503 518 502 570 502 c 0
 959 502 1075 697 1075 939 c 0
387 1146 m 1
 571 1146 l 2
 732 1146 823 1073 823 931 c 0
 823 818 789 697 544 697 c 0
 498 697 415 697 387 698 c 1
 387 1146 l 1
EndSplineSet
EndChar

StartChar: Phi
Encoding: 934 934 105
Width: 1462
VWidth: 19
Flags: HW
LayerCount: 2
Fore
SplineSet
649 1244 m 1
 290 1214 84 1004 84 706 c 0
 84 411 282 186 649 154 c 1
 649 0 l 1
 824 0 l 1
 824 154 l 1
 1197 185 1394 412 1394 706 c 0
 1394 1007 1182 1215 824 1244 c 1
 824 1370 l 1
 649 1370 l 1
 649 1244 l 1
649 317 m 1
 385 347 271 508 271 706 c 0
 271 913 398 1054 649 1081 c 1
 649 317 l 1
824 317 m 1
 824 1081 l 1
 1081 1055 1206 910 1206 706 c 0
 1206 505 1087 346 824 317 c 1
EndSplineSet
EndChar

StartChar: Pi
Encoding: 928 928 106
Width: 1288
VWidth: 19
Flags: HW
LayerCount: 2
Fore
SplineSet
125 0 m 1
 302 0 l 1
 302 1215 l 1
 1001 1215 l 1
 1001 0 l 1
 1178 0 l 1
 1178 1370 l 1
 125 1370 l 1
 125 0 l 1
EndSplineSet
EndChar

StartChar: Psi
Encoding: 936 936 107
Width: 407
VWidth: 19
Flags: HW
LayerCount: 2
Fore
SplineSet
342 610 m 0
 342 673 300 737 215 737 c 0
 131 737 87 673 87 610 c 0
 87 547 131 483 215 483 c 0
 300 483 342 547 342 610 c 0
EndSplineSet
EndChar

StartChar: Q
Encoding: 81 81 108
Width: 1431
VWidth: 19
Flags: HW
PickledData: "(dp1
S'org.robofab.postScriptHintData'
p2
(dp3
sS'com.typemytype.robofont.layerData'
p4
(dp5
s."
LayerCount: 2
Fore
SplineSet
723 -17 m 0
 745 -17 769 -16 789 -15 c 1
 864 -154 999 -345 1104 -423 c 0
 1111 -428 l 1
 1280 -281 l 1
 1273 -274 l 0
 1156 -165 1067 -22 1025 48 c 1
 1240 151 1364 370 1364 672 c 0
 1364 1105 1115 1361 724 1361 c 0
 333 1361 83 1107 83 671 c 0
 83 239 330 -17 723 -17 c 0
355 669 m 0
 355 967 478 1146 725 1146 c 0
 971 1146 1093 969 1093 669 c 0
 1093 373 972 197 724 197 c 0
 476 197 355 374 355 669 c 0
EndSplineSet
EndChar

StartChar: R
Encoding: 82 82 109
Width: 1215
VWidth: 19
Flags: HW
PickledData: "(dp1
S'org.robofab.postScriptHintData'
p2
(dp3
sS'com.typemytype.robofont.layerData'
p4
(dp5
s."
LayerCount: 2
Fore
SplineSet
1127 968 m 0
 1127 1279 925 1346 619 1346 c 2
 129 1346 l 1
 129 0 l 1
 388 0 l 1
 388 560 l 1
 430 560 571 558 576 558 c 0
 609 558 653 558 670 557 c 1
 685 528 744 409 774 345 c 0
 929 0 l 1
 1206 0 l 1
 1009 421 l 1
 973 495 936 569 899 617 c 1
 1046 676 1127 791 1127 968 c 0
388 1147 m 1
 649 1147 l 2
 813 1147 885 1091 885 970 c 0
 885 831 820 772 639 772 c 0
 615 772 434 772 388 772 c 1
 388 1147 l 1
EndSplineSet
EndChar

StartChar: S
Encoding: 83 83 114
Width: 1036
VWidth: 19
Flags: HW
PickledData: "(dp1
S'org.robofab.postScriptHintData'
p2
(dp3
sS'com.typemytype.robofont.layerData'
p4
(dp5
s."
LayerCount: 2
Fore
SplineSet
347 617 m 1
 346 617 349 621 349 621 c 1
 346 617 l 1
 392 598 527 557 569 544 c 1
 677 511 733 453 719 357 c 1
 706 255 645 210 511 210 c 0
 386 210 218 248 139 294 c 0
 129 300 l 1
 64 82 l 1
 71 78 l 0
 185 14 329 -17 501 -17 c 0
 790 -17 994 119 994 381 c 0
 994 598 890 705 655 783 c 1
 590 806 485 839 447 853 c 0
 447 853 l 1
 446 853 l 0
 380 874 343 922 349 995 c 1
 355 1084 417 1123 535 1128 c 0
 654 1133 777 1092 870 1051 c 0
 878 1048 l 1
 959 1255 l 1
 952 1259 l 0
 832 1326 701 1358 544 1358 c 0
 276 1358 79 1227 79 975 c 0
 79 785 186 674 347 617 c 1
EndSplineSet
EndChar

StartChar: T
Encoding: 84 84 121
Width: 997
VWidth: 19
Flags: HW
LayerCount: 2
Fore
SplineSet
0 1127 m 1
 378 1127 l 1
 378 0 l 1
 636 0 l 1
 636 1127 l 1
 1013 1127 l 1
 1013 1342 l 1
 0 1342 l 1
 0 1127 l 1
EndSplineSet
EndChar

StartChar: Theta
Encoding: 920 920 124
Width: 407
VWidth: 19
Flags: HW
LayerCount: 2
Fore
SplineSet
342 610 m 0
 342 673 300 737 215 737 c 0
 131 737 87 673 87 610 c 0
 87 547 131 483 215 483 c 0
 300 483 342 547 342 610 c 0
EndSplineSet
EndChar

StartChar: Thorn
Encoding: 222 222 125
Width: 1164
VWidth: 19
Flags: HW
LayerCount: 2
Fore
SplineSet
370 1126 m 1
 370 1326 l 1
 153 1326 l 1
 153 16 l 1
 370 16 l 1
 370 311 l 1
 423 311 643 310 645 310 c 0
 924 310 1140 454 1140 720 c 0
 1140 1016 908 1126 613 1126 c 0
 370 1126 l 1
632 946 m 0
 823 946 921 882 921 725 c 0
 921 585 826 505 657 505 c 0
 371 505 l 1
 370 946 l 1
 632 946 l 0
EndSplineSet
EndChar

StartChar: U
Encoding: 85 85 126
Width: 1290
VWidth: 19
Flags: HW
LayerCount: 2
Fore
SplineSet
385 1342 m 1
 122 1342 l 1
 122 485 l 0
 122 170 301 -17 649 -17 c 0
 996 -17 1183 172 1183 484 c 0
 1183 1342 l 1
 922 1342 l 1
 922 505 l 0
 922 290 846 197 654 197 c 0
 458 197 385 289 385 504 c 0
 385 1342 l 1
EndSplineSet
EndChar

StartChar: Upsilontonos
Encoding: 910 910 138
Width: 407
VWidth: 19
Flags: HW
LayerCount: 2
Fore
SplineSet
342 610 m 0
 342 673 300 737 215 737 c 0
 131 737 87 673 87 610 c 0
 87 547 131 483 215 483 c 0
 300 483 342 547 342 610 c 0
EndSplineSet
EndChar

StartChar: V
Encoding: 86 86 141
Width: 1160
VWidth: 19
Flags: HW
LayerCount: 2
Fore
SplineSet
928 1317 m 1
 1154 1317 l 1
 696 33 l 1
 468 33 l 1
 3 1317 l 1
 231 1317 l 1
 502 519 l 0
 511 495 567 299 574 275 c 0
 584 240 l 1
 593 276 l 0
 596 287 651 484 663 517 c 1
 684 580 897 1228 928 1317 c 1
EndSplineSet
EndChar

StartChar: W
Encoding: 87 87 142
Width: 1810
VWidth: 19
Flags: HW
LayerCount: 2
Fore
SplineSet
-13 1342 m 1
 359 0 l 1
 629 0 l 1
 914 983 l 1
 1180 0 l 1
 1452 0 l 1
 1841 1342 l 1
 1580 1342 l 1
 1310 323 l 1
 1034 1336 l 1
 795 1336 l 1
 506 326 l 1
 249 1342 l 1
 -13 1342 l 1
EndSplineSet
EndChar

StartChar: X
Encoding: 88 88 147
Width: 1174
VWidth: 19
Flags: HW
LayerCount: 2
Fore
SplineSet
-19 0 m 1
 267 0 l 1
 595 508 l 1
 915 0 l 1
 1217 0 l 1
 759 682 l 1
 1195 1342 l 1
 914 1342 l 1
 607 856 l 1
 308 1342 l 1
 13 1342 l 1
 440 687 l 1
 -19 0 l 1
EndSplineSet
EndChar

StartChar: Xi
Encoding: 926 926 148
Width: 407
VWidth: 19
Flags: HW
LayerCount: 2
Fore
SplineSet
342 610 m 0
 342 673 300 737 215 737 c 0
 131 737 87 673 87 610 c 0
 87 547 131 483 215 483 c 0
 300 483 342 547 342 610 c 0
EndSplineSet
EndChar

StartChar: Y
Encoding: 89 89 149
Width: 1101
VWidth: 19
Flags: HW
LayerCount: 2
Fore
SplineSet
-22 1342 m 1
 432 532 l 1
 432 0 l 1
 692 0 l 1
 692 536 l 1
 1147 1342 l 1
 864 1342 l 1
 562 786 l 1
 261 1342 l 1
 -22 1342 l 1
EndSplineSet
EndChar

StartChar: Z
Encoding: 90 90 154
Width: 1060
VWidth: 19
Flags: HW
LayerCount: 2
Fore
SplineSet
49 172 m 1
 49 0 l 1
 1037 0 l 1
 1039 214 l 1
 374 214 l 1
 1033 1150 l 1
 1033 1342 l 1
 72 1342 l 1
 72 1127 l 1
 721 1127 l 1
 49 172 l 1
EndSplineSet
EndChar

StartChar: a
Encoding: 97 97 159
Width: 1002
VWidth: 19
Flags: HW
PickledData: "(dp1
S'org.robofab.postScriptHintData'
p2
(dp3
sS'com.typemytype.robofont.layerData'
p4
(dp5
s."
LayerCount: 2
Fore
SplineSet
655 646 m 1
 590 638 532 633 472 626 c 0
 219 600 68 514 68 290 c 0
 68 83 203 -18 379 -18 c 0
 512 -18 616 38 682 119 c 1
 694 80 714 12 715 8 c 1
 717 0 l 1
 907 0 l 1
 907 660 l 0
 907 927 787 1041 522 1041 c 0
 375 1041 261 1013 150 966 c 1
 140 962 l 1
 144 953 l 0
 146 949 199 802 201 797 c 0
 204 788 l 1
 214 792 l 0
 305 829 417 852 504 852 c 0
 606 852 655 807 655 689 c 0
 655 646 l 1
573 465 m 0
 576 466 634 472 654 474 c 1
 654 291 l 1
 624 228 551 166 443 166 c 0
 359 166 316 208 316 287 c 0
 316 404 400 450 572 465 c 0
 572 465 l 1
 573 465 l 0
EndSplineSet
EndChar

StartChar: acute
Encoding: 180 180 163
Width: 541
VWidth: 19
Flags: HW
LayerCount: 2
Fore
SplineSet
320 1081 m 1
 615 1442 l 1
 323 1442 l 1
 163 1081 l 1
 320 1081 l 1
EndSplineSet
EndChar

StartChar: ae
Encoding: 230 230 165
Width: 1478
VWidth: 19
Flags: HW
LayerCount: 2
Fore
SplineSet
454 861 m 1
 453 861 453 867 453 867 c 1
 453 861 l 1
 578 855 608 802 608 687 c 0
 608 591 l 1
 542 584 l 1
 253 552 59 526 59 297 c 0
 59 119 178 -19 368 -19 c 0
 536 -19 661 45 744 119 c 1
 816 32 918 -18 1079 -18 c 0
 1242 -18 1339 22 1418 79 c 0
 1424 84 l 1
 1352 247 l 1
 1342 240 l 0
 1299 206 1207 168 1095 168 c 1
 939 170 858 270 848 451 c 1
 951 458 1261 483 1293 485 c 1
 1381 488 1442 509 1442 573 c 0
 1442 822 1339 1049 1073 1049 c 0
 936 1049 823 983 757 901 c 1
 714 1000 604 1051 459 1049 c 1
 306 1045 205 1014 119 973 c 0
 112 969 l 1
 160 788 l 1
 170 792 l 0
 221 812 343 861 454 861 c 1
544 412 m 0
 546 412 595 418 613 421 c 1
 617 358 639 283 650 256 c 1
 573 197 489 153 402 153 c 0
 325 153 287 196 287 281 c 0
 287 369 367 392 543 412 c 0
 543 412 l 1
 544 412 l 0
1071 859 m 0
 1189 859 1215 757 1215 665 c 0
 1215 658 1215 649 1215 646 c 1
 849 614 l 1
 868 805 976 859 1071 859 c 0
EndSplineSet
EndChar

StartChar: afii10018
Encoding: 1041 1041 168
Width: 1142
VWidth: 19
Flags: HW
LayerCount: 2
Fore
SplineSet
1003 1131 m 1
 1003 1335 l 1
 110 1335 l 1
 110 0 l 1
 595 0 l 0
 872 0 1101 115 1101 399 c 0
 1101 688 883 799 618 799 c 0
 368 799 l 1
 369 1131 l 1
 1003 1131 l 1
607 600 m 0
 757 600 847 537 847 402 c 0
 847 265 758 203 608 203 c 0
 368 203 l 1
 368 600 l 1
 607 600 l 0
EndSplineSet
EndChar

StartChar: afii10020
Encoding: 1043 1043 169
Width: 1283
VWidth: 19
Flags: HW
LayerCount: 2
Fore
SplineSet
959 1335 m 1
 110 1335 l 1
 110 0 l 1
 368 0 l 1
 368 1133 l 1
 938 1133 l 1
 959 1335 l 1
EndSplineSet
EndChar

StartChar: afii10025
Encoding: 1047 1047 171
Width: 1097
VWidth: 19
Flags: HW
LayerCount: 2
Fore
SplineSet
114 131 m 0
 109 124 l 1
 114 118 l 0
 203 29 385 -17 559 -17 c 0
 896 -17 1062 138 1062 383 c 0
 1062 511 988 630 882 688 c 1
 971 736 1030 825 1030 1000 c 0
 1030 1209 811 1365 567 1365 c 0
 398 1365 261 1328 152 1238 c 0
 145 1233 l 1
 241 1056 l 1
 250 1062 l 0
 323 1115 417 1152 561 1152 c 0
 702 1152 789 1062 791 970 c 1
 791 870 697 788 577 788 c 0
 399 788 l 1
 399 583 l 1
 575 583 l 0
 709 583 833 499 833 392 c 0
 833 273 774 191 561 191 c 0
 418 191 292 245 212 299 c 0
 202 306 l 1
 197 296 l 0
 174 250 139 172 114 131 c 0
EndSplineSet
EndChar

StartChar: afii10026
Encoding: 1048 1048 172
Width: 1295
VWidth: 19
Flags: HW
LayerCount: 2
Fore
SplineSet
349 1335 m 1
 110 1335 l 1
 110 0 l 1
 335 0 l 1
 969 838 l 1
 969 0 l 1
 1207 0 l 1
 1207 1335 l 1
 979 1335 l 1
 976 1329 l 1
 969 1317 958 1240 956 1231 c 1
 900 1147 453 570 349 426 c 1
 349 1335 l 1
EndSplineSet
EndChar

StartChar: afii10033
Encoding: 1055 1055 177
Width: 1278
VWidth: 19
Flags: HW
LayerCount: 2
Fore
SplineSet
110 0 m 1
 368 0 l 1
 368 1141 l 1
 932 1141 l 1
 932 0 l 1
 1191 0 l 1
 1191 1335 l 1
 110 1335 l 1
 110 0 l 1
EndSplineSet
EndChar

StartChar: afii10038
Encoding: 1060 1060 180
Width: 1597
VWidth: 19
Flags: HW
LayerCount: 2
Fore
SplineSet
683 1219 m 1
 323 1207 65 994 65 690 c 0
 65 377 327 157 683 145 c 1
 685 0 l 1
 931 0 l 1
 931 145 l 1
 1289 156 1551 374 1551 690 c 0
 1551 1000 1285 1209 931 1219 c 1
 931 1335 l 1
 685 1335 l 1
 683 1219 l 1
683 358 m 1
 439 370 319 517 319 687 c 0
 319 851 442 994 683 1006 c 1
 683 358 l 1
931 358 m 1
 931 1006 l 1
 1179 995 1298 850 1298 687 c 0
 1298 516 1175 369 931 358 c 1
EndSplineSet
EndChar

StartChar: afii10040
Encoding: 1062 1062 182
Width: 1357
VWidth: 19
Flags: HW
LayerCount: 2
Fore
SplineSet
1120 -303 m 1
 1349 -303 l 1
 1349 112 l 1
 1219 112 l 1
 1219 1335 l 1
 961 1335 l 1
 961 194 l 1
 368 194 l 1
 368 1335 l 1
 110 1335 l 1
 110 0 l 1
 1119 0 l 1
 1120 -303 l 1
EndSplineSet
EndChar

StartChar: afii10041
Encoding: 1063 1063 183
Width: 1598
VWidth: 19
Flags: HW
LayerCount: 2
Fore
SplineSet
152 899 m 0
 152 567 388 507 701 507 c 0
 729 507 891 517 942 537 c 1
 943 16 l 1
 1178 16 l 1
 1178 1326 l 1
 943 1326 l 1
 943 747 l 1
 908 734 700 710 674 710 c 0
 464 710 372 745 372 919 c 0
 372 1326 l 1
 152 1326 l 1
 152 899 l 0
EndSplineSet
EndChar

StartChar: afii10042
Encoding: 1064 1064 184
Width: 1617
VWidth: 19
Flags: HW
LayerCount: 2
Fore
SplineSet
110 0 m 1
 1530 0 l 1
 1530 1335 l 1
 1271 1335 l 1
 1271 194 l 1
 964 194 l 1
 964 1335 l 1
 707 1335 l 1
 707 194 l 1
 368 194 l 1
 368 1335 l 1
 110 1335 l 1
 110 0 l 1
EndSplineSet
EndChar

StartChar: afii10043
Encoding: 1065 1065 185
Width: 1670
VWidth: 19
Flags: HW
LayerCount: 2
Fore
SplineSet
1429 -303 m 1
 1658 -303 l 1
 1658 112 l 1
 1530 112 l 1
 1530 1335 l 1
 1272 1335 l 1
 1272 194 l 1
 964 194 l 1
 964 1335 l 1
 707 1335 l 1
 707 194 l 1
 368 194 l 1
 368 1335 l 1
 110 1335 l 1
 110 0 l 1
 1428 0 l 1
 1429 -303 l 1
EndSplineSet
EndChar

StartChar: afii10044
Encoding: 1066 1066 186
Width: 1362
VWidth: 19
Flags: HW
LayerCount: 2
Fore
SplineSet
33 1326 m 1
 33 1125 l 1
 338 1125 l 1
 338 16 l 1
 803 16 l 0
 1142 16 1313 158 1313 449 c 0
 1313 742 1076 859 794 859 c 0
 568 859 l 1
 568 1326 l 1
 33 1326 l 1
813 660 m 0
 992 660 1096 573 1096 442 c 0
 1096 304 1011 219 822 219 c 0
 568 219 l 1
 568 660 l 1
 813 660 l 0
EndSplineSet
EndChar

StartChar: afii10046
Encoding: 1068 1068 187
Width: 1135
VWidth: 19
Flags: HW
LayerCount: 2
Fore
SplineSet
379 859 m 1
 379 1326 l 1
 153 1326 l 1
 153 16 l 1
 596 16 l 0
 896 16 1102 167 1102 441 c 0
 1102 716 885 859 592 859 c 0
 379 859 l 1
610 660 m 0
 793 660 882 576 882 442 c 0
 882 304 793 219 612 219 c 0
 379 219 l 1
 379 660 l 1
 610 660 l 0
EndSplineSet
EndChar

StartChar: afii10047
Encoding: 1069 1069 188
Width: 1226
VWidth: 19
Flags: HW
LayerCount: 2
Fore
SplineSet
165 300 m 1
 83 108 l 1
 90 103 l 0
 225 24 369 -17 511 -17 c 0
 872 -17 1152 265 1152 677 c 0
 1152 1090 862 1363 507 1363 c 0
 363 1363 217 1323 89 1240 c 0
 83 1236 l 1
 165 1041 l 1
 174 1048 l 0
 272 1117 384 1160 494 1160 c 0
 707 1160 850 1004 891 786 c 1
 305 786 l 1
 305 583 l 1
 895 583 l 1
 859 330 705 187 494 187 c 0
 385 187 270 229 175 293 c 0
 165 300 l 1
EndSplineSet
EndChar

StartChar: afii10048
Encoding: 1070 1070 189
Width: 1472
VWidth: 19
Flags: HW
LayerCount: 2
Fore
SplineSet
379 10 m 1
 379 587 l 1
 580 587 l 1
 612 253 812 -17 1175 -17 c 0
 1562 -17 1764 290 1764 670 c 0
 1764 1056 1561 1363 1173 1363 c 0
 822 1363 623 1113 583 791 c 1
 379 791 l 1
 379 1331 l 1
 153 1331 l 1
 153 10 l 1
 379 10 l 1
823 676 m 0
 823 942 930 1160 1172 1160 c 0
 1417 1160 1524 941 1524 676 c 0
 1524 406 1419 187 1174 187 c 0
 934 187 823 605 823 676 c 0
EndSplineSet
EndChar

StartChar: afii10049
Encoding: 1071 1071 190
Width: 1158
VWidth: 19
Flags: HW
LayerCount: 2
Fore
SplineSet
296 600 m 1
 256 549 226 483 185 399 c 0
 168 364 8 34 -2 13 c 0
 -8 0 l 1
 268 0 l 1
 421 325 l 1
 444 372 517 514 530 541 c 1
 549 542 582 541 637 541 c 0
 809 541 l 1
 809 0 l 1
 1068 0 l 1
 1068 1335 l 1
 576 1335 l 0
 267 1335 69 1253 69 952 c 0
 69 773 155 660 296 600 c 1
556 1127 m 0
 809 1127 l 1
 809 746 l 1
 562 746 l 0
 376 746 311 807 311 945 c 0
 311 1071 389 1127 556 1127 c 0
EndSplineSet
EndChar

StartChar: afii10053
Encoding: 1028 1028 191
Width: 1226
VWidth: 19
Flags: HW
LayerCount: 2
Fore
SplineSet
1145 1240 m 0
 1018 1323 872 1363 729 1363 c 0
 371 1363 83 1090 83 677 c 0
 83 265 364 -17 724 -17 c 0
 866 -17 1010 24 1145 103 c 0
 1152 108 l 1
 1069 300 l 1
 1059 293 l 0
 964 229 850 187 741 187 c 0
 529 187 375 334 340 583 c 1
 929 583 l 1
 929 786 l 1
 343 786 l 1
 384 1008 530 1160 742 1160 c 0
 851 1160 963 1117 1060 1048 c 0
 1070 1041 l 1
 1152 1236 l 1
 1145 1240 l 0
EndSplineSet
EndChar

StartChar: afii10058
Encoding: 1033 1033 195
Width: 1654
VWidth: 19
Flags: HW
LayerCount: 2
Fore
SplineSet
282 364 m 0
 282 227 264 179 125 176 c 1
 48 174 l 1
 48 -17 l 1
 107 -17 l 0
 443 -17 528 113 528 402 c 1
 517 1117 l 1
 772 1117 l 1
 800 5 l 1
 1158 5 l 0
 1457 5 1688 120 1688 405 c 0
 1688 698 1441 811 1153 811 c 0
 1006 811 l 1
 1006 1326 l 1
 280 1326 l 1
 282 364 l 0
1172 611 m 0
 1352 611 1466 548 1466 415 c 0
 1466 280 1353 216 1172 216 c 0
 1024 216 l 1
 1024 611 l 1
 1172 611 l 0
EndSplineSet
EndChar

StartChar: afii10066
Encoding: 1073 1073 199
Width: 953
VWidth: 19
Flags: HW
LayerCount: 2
Fore
SplineSet
815 821 m 1
 815 1016 l 1
 89 1016 l 1
 89 0 l 1
 565 0 l 0
 773 0 914 138 914 337 c 0
 914 550 746 660 554 660 c 0
 335 660 l 1
 335 821 l 1
 815 821 l 1
546 478 m 0
 639 478 688 411 688 341 c 0
 688 266 636 188 550 188 c 0
 336 188 l 1
 336 478 l 1
 546 478 l 0
EndSplineSet
EndChar

StartChar: afii10067
Encoding: 1074 1074 200
Width: 976
VWidth: 19
Flags: HW
LayerCount: 2
Fore
SplineSet
915 734 m 0
 915 923 769 1016 559 1016 c 2
 89 1016 l 1
 89 0 l 1
 577 0 l 0
 790 0 942 98 942 299 c 0
 941 394 886 496 789 532 c 1
 874 572 915 649 915 734 c 0
585 433 m 0
 676 433 721 372 722 311 c 0
 722 246 677 187 585 187 c 0
 336 187 l 1
 336 433 l 1
 585 433 l 0
577 814 m 0
 658 814 694 766 694 711 c 0
 694 659 656 604 577 604 c 0
 336 604 l 1
 336 814 l 1
 577 814 l 0
EndSplineSet
EndChar

StartChar: afii10068
Encoding: 1075 1075 201
Width: 649
VWidth: 19
Flags: HW
LayerCount: 2
Fore
SplineSet
625 1016 m 1
 89 1016 l 1
 89 0 l 1
 336 0 l 1
 336 819 l 1
 625 819 l 1
 625 1016 l 1
EndSplineSet
EndChar

StartChar: afii10069
Encoding: 1076 1076 202
Width: 1064
VWidth: 19
Flags: HW
LayerCount: 2
Fore
SplineSet
226 741 m 1
 224 521 165 299 106 194 c 1
 29 194 l 1
 29 -302 l 1
 249 -302 l 1
 257 0 l 1
 833 0 l 1
 848 -302 l 1
 1064 -302 l 1
 1064 194 l 1
 956 194 l 1
 956 1016 l 1
 233 1016 l 1
 226 741 l 1
474 810 m 1
 711 810 l 1
 711 197 l 1
 381 197 l 1
 410 271 454 425 468 647 c 1
 471 676 473 771 474 810 c 1
EndSplineSet
EndChar

StartChar: afii10072
Encoding: 1078 1078 205
Width: 1385
VWidth: 18
Flags: HW
LayerCount: 2
Fore
SplineSet
11 0 m 1
 294 0 l 1
 592 415 l 1
 592 0 l 1
 823 0 l 1
 823 415 l 1
 1120 0 l 1
 1404 0 l 1
 1013 512 l 1
 1387 1016 l 1
 1095 1016 l 1
 823 603 l 1
 823 1016 l 1
 592 1016 l 1
 592 603 l 1
 319 1016 l 1
 28 1016 l 1
 401 512 l 1
 11 0 l 1
EndSplineSet
EndChar

StartChar: afii10073
Encoding: 1079 1079 206
Width: 874
VWidth: 19
Flags: HW
LayerCount: 2
Fore
SplineSet
64 90 m 0
 62 84 l 1
 67 79 l 0
 147 16 273 -18 424 -18 c 0
 656 -18 839 68 839 286 c 1
 837 386 776 481 687 521 c 1
 775 562 813 647 813 736 c 0
 813 918 635 1006 410 1006 c 0
 291 1006 144 987 62 928 c 0
 55 924 l 1
 60 916 l 1
 63 910 106 765 106 765 c 0
 110 752 l 1
 120 759 l 0
 174 797 276 823 408 823 c 0
 539 823 593 782 593 706 c 0
 593 647 551 596 458 596 c 0
 253 596 l 1
 253 419 l 1
 458 419 l 0
 563 419 620 368 620 305 c 0
 620 219 570 169 431 169 c 0
 304 169 183 200 118 243 c 0
 109 250 l 1
 104 240 l 0
 99 228 68 97 64 90 c 0
EndSplineSet
EndChar

StartChar: afii10074
Encoding: 1080 1080 207
Width: 1037
VWidth: 19
Flags: HW
LayerCount: 2
Fore
SplineSet
322 1016 m 1
 89 1016 l 1
 89 0 l 1
 302 0 l 1
 739 558 l 1
 739 0 l 1
 969 0 l 1
 969 1016 l 1
 739 1016 l 1
 739 906 l 1
 322 376 l 1
 322 1016 l 1
EndSplineSet
EndChar

StartChar: afii10076
Encoding: 1082 1082 209
Width: 987
VWidth: 19
Flags: HW
LayerCount: 2
Fore
SplineSet
336 634 m 1
 336 1016 l 1
 89 1016 l 1
 89 0 l 1
 336 0 l 1
 336 373 l 1
 713 0 l 1
 1034 0 l 1
 505 502 l 1
 538 536 665 668 699 705 c 0
 760 770 792 823 840 823 c 0
 860 823 923 810 929 809 c 0
 941 807 l 1
 941 1010 l 1
 932 1011 l 0
 926 1012 879 1025 821 1025 c 0
 715 1025 654 977 580 896 c 0
 542 855 385 686 336 634 c 1
EndSplineSet
EndChar

StartChar: afii10077
Encoding: 1083 1083 210
Width: 1075
VWidth: 19
Flags: HW
LayerCount: 2
Fore
SplineSet
20 -24 m 0
 267 -16 395 94 395 360 c 0
 395 811 l 1
 758 811 l 1
 758 1 l 1
 1004 1 l 1
 1004 1016 l 1
 151 1016 l 1
 151 387 l 0
 151 219 141 193 10 181 c 1
 -28 177 l 1
 -25 -25 l 1
 -15 -25 l 0
 -6 -25 11 -25 20 -24 c 0
EndSplineSet
EndChar

StartChar: afii10078
Encoding: 1084 1084 211
Width: 1139
VWidth: 19
Flags: HW
LayerCount: 2
Fore
SplineSet
89 0 m 1
 322 0 l 1
 322 627 l 1
 527 309 l 1
 634 309 l 1
 841 628 l 1
 841 0 l 1
 1071 0 l 1
 1071 1016 l 1
 850 1016 l 1
 580 600 l 1
 311 1016 l 1
 89 1016 l 1
 89 0 l 1
EndSplineSet
EndChar

StartChar: afii10079
Encoding: 1085 1085 212
Width: 1047
VWidth: 19
Flags: HW
LayerCount: 2
Fore
SplineSet
89 0 m 1
 336 0 l 1
 336 449 l 1
 732 449 l 1
 732 0 l 1
 978 0 l 1
 978 1016 l 1
 732 1016 l 1
 732 641 l 1
 336 641 l 1
 336 1016 l 1
 89 1016 l 1
 89 0 l 1
EndSplineSet
EndChar

StartChar: afii10081
Encoding: 1087 1087 214
Width: 1056
VWidth: 19
Flags: HW
LayerCount: 2
Fore
SplineSet
97 0 m 1
 343 0 l 1
 343 821 l 1
 732 821 l 1
 732 0 l 1
 979 0 l 1
 979 1016 l 1
 97 1016 l 1
 97 0 l 1
EndSplineSet
EndChar

StartChar: afii10084
Encoding: 1090 1090 217
Width: 784
VWidth: 19
Flags: HW
LayerCount: 2
Fore
SplineSet
284 0 m 1
 523 0 l 1
 523 837 l 1
 797 837 l 1
 797 1016 l 1
 3 1016 l 1
 3 837 l 1
 284 837 l 1
 284 0 l 1
EndSplineSet
EndChar

StartChar: afii10085
Encoding: 1091 1091 218
Width: 971
VWidth: 19
Flags: HW
LayerCount: 2
Fore
SplineSet
378 46 m 1
 314 -183 286 -172 114 -172 c 2
 36 -172 l 1
 63 -365 l 1
 178 -365 l 0
 417 -365 500 -296 600 -33 c 0
 991 1016 l 1
 726 1016 l 1
 502 350 l 1
 248 1016 l 1
 -12 1016 l 1
 378 46 l 1
EndSplineSet
EndChar

StartChar: afii10086
Encoding: 1092 1092 219
Width: 1303
VWidth: 19
Flags: HW
LayerCount: 2
Fore
SplineSet
70 511 m 0
 70 274 207 13 449 13 c 0
 457 13 516 14 540 17 c 1
 540 -165 l 1
 785 -165 l 1
 785 17 l 1
 812 14 866 13 875 13 c 0
 1116 13 1255 272 1255 510 c 0
 1255 750 1103 1007 860 1007 c 0
 852 1007 805 1005 785 1003 c 1
 785 1156 l 1
 540 1156 l 1
 540 1003 l 1
 516 1006 474 1007 465 1007 c 0
 222 1007 70 751 70 511 c 0
467 823 m 0
 474 823 524 822 540 820 c 1
 540 199 l 1
 517 196 462 196 453 196 c 0
 350 196 297 351 297 505 c 0
 297 659 364 823 467 823 c 0
785 821 m 1
 805 825 850 824 858 824 c 0
 960 824 1027 660 1027 506 c 0
 1027 353 974 196 870 196 c 0
 863 196 804 197 785 200 c 1
 785 821 l 1
EndSplineSet
EndChar

StartChar: afii10088
Encoding: 1094 1094 221
Width: 1059
VWidth: 19
Flags: HW
LayerCount: 2
Fore
SplineSet
845 -302 m 1
 1052 -302 l 1
 1052 114 l 1
 943 114 l 1
 943 1016 l 1
 697 1016 l 1
 697 193 l 1
 339 193 l 1
 339 1016 l 1
 92 1016 l 1
 92 0 l 1
 826 0 l 1
 845 -302 l 1
EndSplineSet
EndChar

StartChar: afii10089
Encoding: 1095 1095 222
Width: 1028
VWidth: 19
Flags: HW
LayerCount: 2
Fore
SplineSet
52 758 m 0
 52 508 173 345 451 342 c 1
 575 342 660 378 712 429 c 1
 712 0 l 1
 959 0 l 1
 959 1016 l 1
 712 1016 l 1
 712 678 l 1
 706 626 639 541 493 541 c 0
 319 541 298 666 298 802 c 0
 298 1016 l 1
 52 1016 l 1
 52 758 l 0
EndSplineSet
EndChar

StartChar: afii10090
Encoding: 1096 1096 223
Width: 1301
VWidth: 19
Flags: HW
LayerCount: 2
Fore
SplineSet
89 0 m 1
 1233 0 l 1
 1233 1016 l 1
 1002 1016 l 1
 1002 195 l 1
 777 195 l 1
 777 1016 l 1
 546 1016 l 1
 546 195 l 1
 322 195 l 1
 322 1016 l 1
 89 1016 l 1
 89 0 l 1
EndSplineSet
EndChar

StartChar: afii10091
Encoding: 1097 1097 224
Width: 1356
VWidth: 19
Flags: HW
LayerCount: 2
Fore
SplineSet
1131 -295 m 1
 1342 -295 l 1
 1342 113 l 1
 1233 113 l 1
 1233 1016 l 1
 1003 1016 l 1
 1003 193 l 1
 777 193 l 1
 777 1016 l 1
 547 1016 l 1
 547 193 l 1
 322 193 l 1
 322 1016 l 1
 89 1016 l 1
 89 0 l 1
 1117 0 l 1
 1131 -295 l 1
EndSplineSet
EndChar

StartChar: afii10092
Encoding: 1098 1098 225
Width: 1042
VWidth: 19
Flags: HW
LayerCount: 2
Fore
SplineSet
-2 1016 m 1
 -2 823 l 1
 190 823 l 1
 190 0 l 1
 669 0 l 0
 878 0 1014 133 1014 329 c 0
 1014 539 849 647 656 647 c 0
 434 647 l 1
 434 1016 l 1
 -2 1016 l 1
649 467 m 0
 743 467 789 399 789 333 c 0
 789 259 741 188 655 188 c 0
 435 188 l 1
 435 467 l 1
 649 467 l 0
EndSplineSet
EndChar

StartChar: afii10094
Encoding: 1100 1100 226
Width: 927
VWidth: 19
Flags: HW
LayerCount: 2
Fore
SplineSet
335 652 m 1
 335 1017 l 1
 89 1017 l 1
 89 0 l 1
 554 0 l 0
 762 0 899 136 899 332 c 0
 899 543 734 652 542 652 c 0
 335 652 l 1
536 470 m 0
 629 470 673 405 673 336 c 0
 673 261 626 188 541 188 c 0
 336 188 l 1
 336 470 l 1
 536 470 l 0
EndSplineSet
EndChar

StartChar: afii10095
Encoding: 1101 1101 227
Width: 868
VWidth: 19
Flags: HW
LayerCount: 2
Fore
SplineSet
94 249 m 1
 42 71 l 1
 48 67 l 0
 127 12 216 -19 338 -19 c 0
 629 -19 831 178 831 523 c 0
 831 859 606 1034 351 1034 c 0
 226 1034 132 1005 56 946 c 0
 50 942 l 1
 98 767 l 1
 109 774 l 0
 151 804 244 844 329 844 c 0
 465 844 560 772 585 602 c 1
 153 602 l 1
 153 420 l 1
 585 420 l 1
 557 244 462 168 325 168 c 0
 240 168 165 201 105 241 c 0
 94 249 l 1
EndSplineSet
EndChar

StartChar: afii10096
Encoding: 1102 1102 228
Width: 1360
VWidth: 19
Flags: HW
LayerCount: 2
Fore
SplineSet
336 0 m 1
 336 410 l 1
 445 410 l 1
 478 175 621 -18 885 -18 c 0
 1171 -18 1325 227 1325 511 c 0
 1325 802 1178 1034 885 1034 c 0
 624 1034 479 850 445 610 c 1
 336 610 l 1
 336 1016 l 1
 89 1016 l 1
 89 0 l 1
 336 0 l 1
677 508 m 0
 677 693 746 847 885 847 c 0
 1034 847 1084 703 1084 509 c 0
 1084 326 1029 168 885 168 c 0
 743 168 677 325 677 508 c 0
EndSplineSet
EndChar

StartChar: afii10097
Encoding: 1103 1103 229
Width: 992
VWidth: 19
Flags: HW
LayerCount: 2
Fore
SplineSet
438 1016 m 0
 231 1016 83 898 83 705 c 0
 83 570 170 475 284 430 c 1
 63 0 l 1
 338 0 l 1
 524 392 l 1
 680 392 l 1
 680 0 l 1
 926 0 l 1
 926 1016 l 1
 438 1016 l 0
460 813 m 0
 680 813 l 1
 680 588 l 1
 460 588 l 0
 367 588 331 637 327 698 c 0
 327 700 327 703 327 705 c 0
 327 764 368 813 460 813 c 0
EndSplineSet
EndChar

StartChar: afii10099
Encoding: 1106 1106 230
Width: 974
VWidth: 19
Flags: HW
LayerCount: 2
Fore
SplineSet
734 104 m 0
 734 -86 721 -106 574 -106 c 2
 527 -106 l 1
 539 -252 l 1
 609 -252 l 0
 879 -252 902 -120 902 155 c 0
 902 414 l 0
 902 676 798 824 564 824 c 0
 439 824 340 770 266 682 c 1
 266 994 l 1
 628 994 l 1
 628 1119 l 1
 266 1119 l 1
 266 1382 l 1
 96 1382 l 1
 96 1119 l 1
 13 1119 l 1
 13 995 l 1
 96 995 l 1
 96 0 l 1
 266 0 l 1
 266 453 l 1
 290 542 407 664 550 664 c 0
 706 664 734 562 734 340 c 0
 734 104 l 0
EndSplineSet
EndChar

StartChar: afii10101
Encoding: 1108 1108 232
Width: 868
VWidth: 19
Flags: HW
LayerCount: 2
Fore
SplineSet
825 946 m 0
 749 1004 654 1039 529 1039 c 0
 275 1039 49 859 49 523 c 0
 49 178 252 -19 543 -19 c 0
 664 -19 754 12 833 67 c 0
 839 71 l 1
 786 249 l 1
 774 241 l 0
 704 192 631 168 560 168 c 0
 429 168 324 256 296 428 c 1
 728 428 l 1
 728 609 l 1
 295 609 l 1
 321 773 423 845 551 845 c 0
 631 845 711 816 772 774 c 0
 783 767 l 1
 830 942 l 1
 825 946 l 0
EndSplineSet
EndChar

StartChar: afii10107
Encoding: 1114 1114 237
Width: 1486
VWidth: 19
Flags: HW
LayerCount: 2
Fore
SplineSet
336 642 m 1
 336 1016 l 1
 89 1016 l 1
 89 0 l 1
 336 0 l 1
 336 437 l 1
 696 437 l 1
 696 0 l 1
 1110 0 l 0
 1315 0 1457 138 1457 328 c 0
 1457 544 1318 643 1111 643 c 0
 940 643 l 1
 940 1016 l 1
 696 1016 l 1
 696 642 l 1
 336 642 l 1
1099 463 m 0
 1193 463 1246 406 1246 333 c 0
 1246 255 1195 191 1100 191 c 0
 940 191 l 1
 940 463 l 1
 1099 463 l 0
EndSplineSet
EndChar

StartChar: afii10108
Encoding: 1115 1115 238
Width: 974
VWidth: 19
Flags: HW
LayerCount: 2
Fore
SplineSet
13 1120 m 1
 13 996 l 1
 96 996 l 1
 96 0 l 1
 266 0 l 1
 266 453 l 1
 290 542 407 664 550 664 c 0
 706 664 734 563 734 340 c 0
 734 0 l 1
 902 0 l 1
 902 412 l 0
 902 675 798 824 564 824 c 0
 439 824 340 770 266 682 c 1
 266 995 l 1
 628 995 l 1
 628 1120 l 1
 266 1120 l 1
 266 1382 l 1
 96 1382 l 1
 96 1120 l 1
 13 1120 l 1
EndSplineSet
EndChar

StartChar: afii10193
Encoding: 1119 1119 241
Width: 1017
VWidth: 19
Flags: HW
LayerCount: 2
Fore
SplineSet
424 -304 m 1
 630 -304 l 1
 642 0 l 1
 943 0 l 1
 943 1016 l 1
 696 1016 l 1
 696 193 l 1
 336 193 l 1
 336 1016 l 1
 89 1016 l 1
 89 0 l 1
 415 0 l 1
 424 -304 l 1
EndSplineSet
EndChar

StartChar: afii57929
Encoding: 700 700 242
Width: 334
VWidth: 19
Flags: HW
LayerCount: 2
Fore
SplineSet
287 1357 m 1
 85 1357 l 1
 91 877 l 1
 236 877 l 1
 287 1357 l 1
EndSplineSet
EndChar

StartChar: alpha
Encoding: 945 945 245
Width: 407
VWidth: 19
Flags: HW
LayerCount: 2
Fore
SplineSet
342 610 m 0
 342 673 300 737 215 737 c 0
 131 737 87 673 87 610 c 0
 87 547 131 483 215 483 c 0
 300 483 342 547 342 610 c 0
EndSplineSet
EndChar

StartChar: alphatonos
Encoding: 940 940 246
Width: 407
VWidth: 19
Flags: HW
LayerCount: 2
Fore
SplineSet
342 610 m 0
 342 673 300 737 215 737 c 0
 131 737 87 673 87 610 c 0
 87 547 131 483 215 483 c 0
 300 483 342 547 342 610 c 0
EndSplineSet
EndChar

StartChar: ampersand
Encoding: 38 38 248
Width: 1261
VWidth: 19
Flags: HW
LayerCount: 2
Fore
SplineSet
198 1052 m 0
 198 936 271 851 339 772 c 1
 186 688 45 585 45 389 c 0
 45 111 274 -1 517 -1 c 0
 663 -1 802 49 917 134 c 1
 1041 4 l 1
 1047 6 l 0
 1058 10 1221 49 1234 53 c 0
 1249 57 l 1
 1060 256 l 1
 1119 322 1176 409 1216 488 c 0
 1220 495 l 1
 1051 606 l 1
 1047 597 l 0
 1013 533 964 456 919 403 c 1
 627 725 l 1
 765 795 903 898 903 1068 c 0
 903 1275 712 1359 544 1359 c 0
 363 1359 198 1263 198 1052 c 0
270 399 m 0
 270 518 352 574 452 630 c 1
 499 578 735 320 784 266 c 1
 712 210 617 178 522 178 c 0
 380 178 270 247 270 399 c 0
413 1061 m 0
 413 1150 468 1189 551 1189 c 0
 628 1189 684 1151 684 1067 c 0
 684 968 598 911 511 863 c 1
 454 924 413 984 413 1061 c 0
EndSplineSet
EndChar

StartChar: approxequal
Encoding: 8776 8776 250
Width: 1151
VWidth: 19
Flags: HW
LayerCount: 2
Fore
SplineSet
622 723 m 1
 546 759 462 789 382 789 c 0
 240 789 157 703 114 594 c 1
 113 589 l 1
 204 457 l 1
 212 472 l 0
 244 544 295 602 375 602 c 0
 438 602 485 581 543 551 c 1
 633 507 699 478 788 478 c 0
 928 478 1044 573 1087 673 c 0
 1089 678 l 1
 1005 799 l 1
 998 789 l 0
 926 700 871 667 803 667 c 0
 752 667 699 685 622 723 c 1
620 357 m 1
 548 390 464 421 383 421 c 0
 241 421 158 335 114 226 c 0
 113 221 l 1
 204 89 l 1
 212 104 l 0
 245 176 295 234 376 234 c 0
 439 234 485 213 543 183 c 1
 634 139 700 110 789 110 c 0
 929 110 1044 206 1087 305 c 0
 1089 310 l 1
 1006 432 l 1
 999 421 l 0
 925 333 871 299 803 299 c 0
 753 299 695 321 620 357 c 1
EndSplineSet
EndChar

StartChar: asciicircum
Encoding: 94 94 253
Width: 1011
VWidth: 19
Flags: HW
LayerCount: 2
Fore
SplineSet
441 1347 m 1
 22 491 l 1
 231 491 l 1
 505 1075 l 1
 802 491 l 1
 1011 491 l 1
 566 1347 l 1
 441 1347 l 1
EndSplineSet
EndChar

StartChar: asciitilde
Encoding: 126 126 254
Width: 1139
VWidth: 19
Flags: HW
LayerCount: 2
Fore
SplineSet
112 571 m 0
 109 568 l 1
 188 418 l 1
 196 433 l 0
 232 500 289 561 367 561 c 0
 431 561 482 539 547 508 c 1
 632 470 696 443 783 443 c 0
 915 443 1029 530 1077 620 c 0
 1080 625 l 1
 1008 763 l 1
 999 753 l 0
 925 670 864 635 797 635 c 0
 747 635 689 656 610 691 c 0
 534 724 453 750 375 750 c 0
 237 750 159 667 112 571 c 0
EndSplineSet
EndChar

StartChar: asterisk
Encoding: 42 42 255
Width: 965
VWidth: 19
Flags: HW
LayerCount: 2
Fore
SplineSet
342 500 m 1
 490 783 l 1
 645 498 l 1
 653 504 l 0
 663 510 820 598 832 605 c 0
 841 610 l 1
 835 621 l 1
 835 621 l 0
 820 642 666 830 628 878 c 1
 935 946 l 1
 874 1159 l 1
 572 1035 l 1
 601 1378 l 1
 380 1378 l 1
 411 1035 l 1
 112 1159 l 1
 48 946 l 1
 354 878 l 1
 141 610 l 1
 342 500 l 1
EndSplineSet
EndChar

StartChar: at
Encoding: 64 64 256
Width: 1494
VWidth: 19
Flags: HW
LayerCount: 2
Fore
SplineSet
1458 640 m 0
 1458 1018 1168 1274 794 1274 c 0
 371 1274 54 960 54 540 c 0
 54 101 359 -184 793 -184 c 0
 1006 -184 1165 -115 1289 -13 c 0
 1296 -8 l 1
 1238 106 l 1
 1228 99 l 0
 1095 1 942 -37 791 -37 c 0
 480 -37 220 160 220 529 c 0
 220 765 385 1125 793 1125 c 0
 1087 1125 1299 936 1299 643 c 0
 1299 471 1193 287 1076 287 c 0
 1069 287 1064 287 1058 288 c 0
 1024 293 1010 312 1026 433 c 0
 1044 567 1084 724 1112 877 c 0
 1113 885 l 1
 1106 888 l 0
 1026 919 928 947 823 947 c 0
 574 947 391 729 391 472 c 0
 391 295 491 154 667 154 c 0
 760 154 841 221 887 309 c 1
 901 188 969 140 1058 140 c 0
 1265 140 1458 349 1458 640 c 0
836 819 m 0
 867 819 897 816 925 811 c 1
 916 756 909 705 896 646 c 0
 858 471 789 306 669 306 c 0
 602 306 573 379 573 468 c 0
 573 635 689 819 836 819 c 0
EndSplineSet
EndChar

StartChar: b
Encoding: 98 98 258
Width: 1105
VWidth: 19
Flags: HW
PickledData: "(dp1
S'org.robofab.postScriptHintData'
p2
(dp3
sS'com.typemytype.robofont.layerData'
p4
(dp5
s."
LayerCount: 2
Fore
SplineSet
114 1 m 1
 335 1 l 1
 355 127 l 1
 409 50 511 -18 644 -18 c 0
 897 -18 1055 202 1055 519 c 0
 1055 819 907 1041 648 1041 c 0
 504 1041 415 969 364 908 c 1
 366 974 367 1028 367 1079 c 0
 367 1393 l 1
 114 1376 l 1
 114 1 l 1
365 527 m 0
 367 757 455 845 590 845 c 0
 715 845 802 744 802 516 c 0
 802 290 712 179 587 179 c 0
 445 179 365 277 365 527 c 0
EndSplineSet
EndChar

StartChar: backslash
Encoding: 92 92 259
Width: 788
VWidth: 19
Flags: HW
LayerCount: 2
Fore
SplineSet
569 -54 m 1
 795 -54 l 1
 244 1339 l 1
 18 1339 l 1
 569 -54 l 1
EndSplineSet
EndChar

StartChar: bar
Encoding: 124 124 260
Width: 667
VWidth: 19
Flags: HW
LayerCount: 2
Fore
SplineSet
241 -338 m 1
 442 -338 l 1
 442 1406 l 1
 241 1406 l 1
 241 -338 l 1
EndSplineSet
EndChar

StartChar: beta
Encoding: 946 946 261
Width: 407
VWidth: 19
Flags: HW
LayerCount: 2
Fore
SplineSet
342 610 m 0
 342 673 300 737 215 737 c 0
 131 737 87 673 87 610 c 0
 87 547 131 483 215 483 c 0
 300 483 342 547 342 610 c 0
EndSplineSet
EndChar

StartChar: braceleft
Encoding: 123 123 262
Width: 691
VWidth: 19
Flags: HW
LayerCount: 2
Fore
SplineSet
240 277 m 0
 240 30 l 2
 240 -186 373 -245 630 -245 c 0
 640 -245 l 1
 640 -47 l 1
 630 -47 l 0
 503 -45 485 -16 485 97 c 0
 485 340 l 0
 485 461 424 533 318 564 c 1
 432 613 483 676 485 796 c 1
 485 1037 l 0
 485 1150 504 1181 630 1183 c 0
 640 1183 l 1
 640 1383 l 1
 630 1383 l 0
 377 1383 240 1325 240 1112 c 0
 240 849 l 0
 240 711 211 672 49 671 c 0
 39 671 l 1
 39 458 l 1
 49 458 l 0
 204 458 240 413 240 277 c 0
EndSplineSet
EndChar

StartChar: braceright
Encoding: 125 125 263
Width: 691
VWidth: 19
Flags: HW
LayerCount: 2
Fore
SplineSet
80 -47 m 0
 70 -47 l 1
 70 -245 l 1
 80 -245 l 0
 339 -245 469 -189 469 22 c 0
 469 277 l 0
 469 416 506 458 661 458 c 0
 671 458 l 1
 671 671 l 1
 661 671 l 0
 500 672 469 712 469 848 c 0
 469 1104 l 0
 469 1326 336 1383 80 1383 c 0
 70 1383 l 1
 70 1183 l 1
 80 1183 l 0
 207 1181 224 1151 224 1037 c 0
 224 796 l 1
 226 675 281 605 392 564 c 1
 282 525 224 462 224 340 c 0
 224 97 l 0
 224 -17 206 -45 80 -47 c 0
EndSplineSet
EndChar

StartChar: bracketleft
Encoding: 91 91 264
Width: 570
VWidth: 19
Flags: HW
LayerCount: 2
Fore
SplineSet
114 -237 m 1
 546 -237 l 1
 546 -56 l 1
 359 -56 l 1
 359 1200 l 1
 546 1200 l 1
 546 1380 l 1
 114 1380 l 1
 114 -237 l 1
EndSplineSet
EndChar

StartChar: bracketright
Encoding: 93 93 265
Width: 570
VWidth: 19
Flags: HW
LayerCount: 2
Fore
SplineSet
39 -237 m 1
 472 -237 l 1
 472 1380 l 1
 39 1380 l 1
 39 1200 l 1
 226 1200 l 1
 226 -56 l 1
 39 -56 l 1
 39 -237 l 1
EndSplineSet
EndChar

StartChar: breve
Encoding: 728 728 266
Width: 622
VWidth: 19
Flags: HW
LayerCount: 2
Fore
SplineSet
216 1354 m 1
 48 1354 l 1
 48 1345 l 0
 48 1180 164 1102 316 1102 c 0
 469 1102 586 1179 586 1345 c 0
 586 1354 l 1
 417 1354 l 1
 417 1345 l 0
 417 1284 390 1260 316 1260 c 0
 242 1260 216 1284 216 1345 c 0
 216 1354 l 1
EndSplineSet
EndChar

StartChar: brokenbar
Encoding: 166 166 267
Width: 718
VWidth: 19
Flags: HW
LayerCount: 2
Fore
SplineSet
266 -337 m 1
 467 -337 l 1
 467 331 l 1
 266 331 l 1
 266 -337 l 1
266 739 m 1
 467 739 l 1
 467 1406 l 1
 266 1406 l 1
 266 739 l 1
EndSplineSet
EndChar

StartChar: bullet
Encoding: 8226 8226 268
Width: 871
VWidth: 19
Flags: HW
LayerCount: 2
Fore
SplineSet
769 641 m 0
 769 819 631 950 448 950 c 0
 264 950 121 813 121 635 c 0
 121 457 258 324 443 324 c 0
 628 324 769 462 769 641 c 0
EndSplineSet
EndChar

StartChar: c
Encoding: 99 99 269
Width: 881
VWidth: 19
Flags: HW
PickledData: "(dp1
S'org.robofab.postScriptHintData'
p2
(dp3
sS'com.typemytype.robofont.layerData'
p4
(dp5
s."
LayerCount: 2
Fore
SplineSet
841 963 m 0
 762 1013 665 1041 547 1041 c 0
 270 1041 66 856 66 516 c 0
 66 170 249 -18 544 -18 c 0
 667 -18 749 6 832 61 c 1
 838 64 l 1
 812 266 l 1
 798 258 l 0
 736 217 652 178 562 183 c 0
 417 190 318 292 318 513 c 0
 318 735 420 833 564 840 c 0
 636 844 713 820 777 786 c 0
 788 781 l 1
 848 959 l 1
 841 963 l 0
EndSplineSet
EndChar

StartChar: caron
Encoding: 711 711 271
Width: 679
VWidth: 19
Flags: HW
LayerCount: 2
Fore
SplineSet
224 1413 m 1
 23 1413 l 1
 271 1076 l 1
 461 1076 l 1
 709 1413 l 1
 504 1413 l 1
 354 1242 l 1
 224 1413 l 1
EndSplineSet
EndChar

StartChar: cedilla
Encoding: 184 184 276
Width: 514
VWidth: 19
Flags: HW
LayerCount: 2
Fore
SplineSet
309 60 m 1
 162 60 l 1
 46 -297 l 1
 255 -297 l 1
 309 60 l 1
EndSplineSet
EndChar

StartChar: cent
Encoding: 162 162 277
Width: 945
VWidth: 19
Flags: HW
LayerCount: 2
Fore
SplineSet
500 1070 m 1
 262 1051 68 880 67 574 c 1
 67 258 244 71 500 47 c 1
 500 -183 l 1
 605 -183 l 1
 605 47 l 1
 700 55 774 84 842 132 c 0
 848 136 l 1
 796 312 l 1
 784 304 l 0
 739 272 675 243 605 235 c 1
 605 880 l 1
 676 870 743 842 781 815 c 0
 793 807 l 1
 838 981 l 1
 833 985 l 0
 772 1031 698 1059 605 1068 c 1
 605 1266 l 1
 500 1266 l 1
 500 1070 l 1
500 250 m 1
 382 280 307 384 307 576 c 0
 307 766 390 861 500 885 c 1
 500 250 l 1
EndSplineSet
EndChar

StartChar: circumflex
Encoding: 710 710 279
Width: 680
VWidth: 19
Flags: HW
LayerCount: 2
Fore
SplineSet
462 1413 m 1
 266 1413 l 1
 31 1045 l 1
 212 1045 l 1
 354 1239 l 1
 512 1045 l 1
 698 1045 l 1
 462 1413 l 1
EndSplineSet
EndChar

StartChar: colon
Encoding: 58 58 280
Width: 400
VWidth: 19
Flags: HW
LayerCount: 2
Fore
SplineSet
83 -6 m 1
 339 -6 l 1
 339 260 l 1
 83 260 l 1
 83 -6 l 1
83 768 m 1
 339 768 l 1
 339 1023 l 1
 83 1023 l 1
 83 768 l 1
EndSplineSet
EndChar

StartChar: comma
Encoding: 44 44 281
Width: 443
VWidth: 19
Flags: HW
LayerCount: 2
Fore
SplineSet
137 245 m 1
 136 238 l 2
 113 95 82 -70 51 -221 c 0
 49 -233 l 1
 226 -233 l 1
 228 -227 l 0
 285 -82 333 63 369 189 c 0
 369 190 l 1
 374 245 l 1
 137 245 l 1
EndSplineSet
EndChar

StartChar: copyright
Encoding: 169 169 282
Width: 1533
VWidth: 19
Flags: HW
LayerCount: 2
Fore
SplineSet
1034 1054 m 0
 960 1104 867 1129 758 1129 c 0
 511 1129 342 929 342 679 c 0
 342 422 519 236 759 236 c 0
 868 236 963 263 1035 310 c 0
 1042 314 l 1
 996 424 l 1
 986 419 l 0
 923 381 838 361 772 361 c 0
 600 361 491 487 491 679 c 0
 491 874 599 1003 769 1003 c 0
 835 1003 917 984 981 946 c 0
 990 941 l 1
 1041 1051 l 1
 1034 1054 l 0
195 688 m 0
 195 1007 439 1268 770 1268 c 0
 1106 1268 1350 1007 1350 687 c 0
 1350 367 1107 108 771 108 c 0
 439 108 195 367 195 688 c 0
1472 688 m 0
 1472 1090 1148 1377 770 1377 c 0
 395 1377 72 1091 72 688 c 0
 72 285 396 0 771 0 c 0
 1150 0 1472 285 1472 688 c 0
EndSplineSet
EndChar

StartChar: currency
Encoding: 164 164 283
Width: 1017
VWidth: 19
Flags: HW
LayerCount: 2
Fore
SplineSet
296 365 m 1
 359 317 434 291 519 291 c 0
 602 291 677 320 739 366 c 1
 906 210 l 1
 999 308 l 1
 836 464 l 1
 877 528 899 597 899 675 c 0
 899 753 874 826 835 887 c 1
 1000 1045 l 1
 906 1142 l 1
 739 985 l 1
 675 1034 603 1060 519 1060 c 0
 437 1060 359 1032 298 987 c 1
 136 1142 l 1
 37 1046 l 1
 203 887 l 1
 162 822 139 752 139 675 c 0
 139 597 164 525 203 464 c 1
 38 306 l 1
 136 211 l 1
 296 365 l 1
283 675 m 0
 283 808 389 917 519 917 c 0
 650 917 757 809 757 675 c 0
 757 541 651 434 519 434 c 0
 389 434 283 541 283 675 c 0
EndSplineSet
EndChar

StartChar: d
Encoding: 100 100 284
Width: 1105
VWidth: 19
Flags: HW
PickledData: "(dp1
S'org.robofab.postScriptHintData'
p2
(dp3
sS'com.typemytype.robofont.layerData'
p4
(dp5
s."
LayerCount: 2
Fore
SplineSet
759 920 m 1
 715 978 634 1041 482 1041 c 0
 220 1041 66 826 66 517 c 0
 66 200 221 -17 482 -17 c 0
 651 -17 723 55 763 117 c 1
 787 0 l 1
 1007 0 l 1
 1007 1393 l 1
 753 1376 l 1
 753 1052 l 0
 753 1017 755 963 759 920 c 1
318 512 m 0
 318 742 411 843 536 843 c 0
 681 843 762 748 762 497 c 0
 760 267 677 179 538 179 c 0
 410 179 318 285 318 512 c 0
EndSplineSet
EndChar

StartChar: dagger
Encoding: 8224 8224 285
Width: 856
VWidth: 19
Flags: HW
LayerCount: 2
Fore
SplineSet
335 102 m 1
 518 102 l 1
 518 872 l 1
 822 872 l 1
 822 1052 l 1
 526 1052 l 1
 526 1360 l 1
 335 1360 l 1
 335 1052 l 1
 54 1052 l 1
 54 872 l 1
 335 872 l 1
 335 102 l 1
EndSplineSet
EndChar

StartChar: daggerdbl
Encoding: 8225 8225 286
Width: 870
VWidth: 19
Flags: HW
LayerCount: 2
Fore
SplineSet
352 -23 m 1
 544 -23 l 1
 544 335 l 1
 785 335 l 1
 785 498 l 1
 544 498 l 1
 543 863 l 1
 788 863 l 1
 788 1037 l 1
 543 1037 l 1
 543 1354 l 1
 352 1354 l 1
 352 1037 l 1
 109 1037 l 1
 109 863 l 1
 352 863 l 1
 352 498 l 1
 107 498 l 1
 107 335 l 1
 352 335 l 1
 352 -23 l 1
EndSplineSet
EndChar

StartChar: degree
Encoding: 176 176 288
Width: 748
VWidth: 19
Flags: HW
LayerCount: 2
Fore
SplineSet
247 1052 m 0
 247 1141 314 1191 385 1191 c 0
 454 1191 519 1141 519 1052 c 0
 519 961 454 908 384 908 c 0
 314 908 247 961 247 1052 c 0
673 1057 m 0
 673 1204 565 1332 384 1332 c 0
 200 1332 93 1204 93 1057 c 0
 93 913 197 774 384 774 c 0
 570 774 673 914 673 1057 c 0
EndSplineSet
EndChar

StartChar: delta
Encoding: 948 948 289
Width: 407
VWidth: 19
Flags: HW
LayerCount: 2
Fore
SplineSet
342 610 m 0
 342 673 300 737 215 737 c 0
 131 737 87 673 87 610 c 0
 87 547 131 483 215 483 c 0
 300 483 342 547 342 610 c 0
EndSplineSet
EndChar

StartChar: dieresis
Encoding: 168 168 290
Width: 679
VWidth: 19
Flags: HW
LayerCount: 2
Fore
SplineSet
257 1119 m 1
 257 1364 l 1
 63 1364 l 1
 63 1119 l 1
 257 1119 l 1
632 1119 m 1
 632 1364 l 1
 439 1364 l 1
 439 1119 l 1
 632 1119 l 1
EndSplineSet
EndChar

StartChar: dieresistonos
Encoding: 901 901 291
Width: 407
VWidth: 19
Flags: HW
LayerCount: 2
Fore
SplineSet
342 610 m 0
 342 673 300 737 215 737 c 0
 131 737 87 673 87 610 c 0
 87 547 131 483 215 483 c 0
 300 483 342 547 342 610 c 0
EndSplineSet
EndChar

StartChar: divide
Encoding: 247 247 292
Width: 1282
VWidth: 19
Flags: HW
LayerCount: 2
Fore
SplineSet
519 18 m 1
 779 18 l 1
 779 279 l 1
 519 279 l 1
 519 18 l 1
154 444 m 1
 1142 444 l 1
 1142 630 l 1
 154 630 l 1
 154 444 l 1
519 797 m 1
 787 797 l 1
 787 1047 l 1
 519 1047 l 1
 519 797 l 1
EndSplineSet
EndChar

StartChar: dollar
Encoding: 36 36 293
Width: 1053
VWidth: 19
Flags: HW
PickledData: "(dp1
S'org.robofab.postScriptHintData'
p2
(dp3
sS'com.typemytype.robofont.layerData'
p4
(dp5
s."
LayerCount: 2
Fore
SplineSet
606 1480 m 1
 487 1480 l 1
 487 -148 l 1
 606 -148 l 1
 606 1480 l 1
EndSplineSet
Refer: 114 83 N 1 0 0 1 0 0 2
EndChar

StartChar: dotaccent
Encoding: 729 729 294
Width: 473
VWidth: 19
Flags: HW
LayerCount: 2
Fore
SplineSet
333 1129 m 1
 333 1342 l 1
 135 1342 l 1
 135 1129 l 1
 333 1129 l 1
EndSplineSet
EndChar

StartChar: dotlessi
Encoding: 305 305 295
Width: 480
VWidth: 19
Flags: HW
LayerCount: 2
Fore
SplineSet
356 1016 m 1
 109 1016 l 1
 109 0 l 1
 356 0 l 1
 356 1016 l 1
EndSplineSet
EndChar

StartChar: e
Encoding: 101 101 296
Width: 1013
VWidth: 19
Flags: HW
PickledData: "(dp1
S'org.robofab.postScriptHintData'
p2
(dp3
sS'com.typemytype.robofont.layerData'
p4
(dp5
s."
LayerCount: 2
Fore
SplineSet
965 558 m 0
 965 840 812 1041 533 1041 c 0
 244 1040 66 830 66 512 c 0
 66 183 255 -18 570 -18 c 0
 726 -18 830 16 921 73 c 0
 926 77 l 1
 891 263 l 1
 879 256 l 0
 792 208 695 174 579 174 c 0
 421 174 329 273 321 446 c 1
 964 446 l 1
 964 457 l 0
 964 490 965 526 965 558 c 0
327 626 m 1
 342 789 431 854 534 854 c 0
 651 854 721 773 725 626 c 1
 327 626 l 1
EndSplineSet
EndChar

StartChar: eight
Encoding: 56 56 304
Width: 1007
VWidth: 19
Flags: HW
LayerCount: 2
Fore
SplineSet
75 1017 m 0
 75 865 156 770 267 711 c 1
 138 647 50 540 50 375 c 0
 50 129 266 1 515 1 c 0
 762 1 975 127 975 374 c 0
 975 538 893 646 772 711 c 1
 878 772 951 868 951 1017 c 0
 951 1249 754 1363 514 1363 c 0
 276 1363 75 1249 75 1017 c 0
289 368 m 0
 289 501 385 579 515 614 c 1
 644 579 739 500 739 369 c 0
 739 243 658 173 515 173 c 0
 373 173 289 243 289 368 c 0
300 1016 m 0
 300 1118 392 1184 515 1184 c 0
 638 1184 727 1118 727 1016 c 0
 727 891 647 812 515 781 c 1
 382 812 300 891 300 1016 c 0
EndSplineSet
EndChar

StartChar: emdash
Encoding: 8212 8212 306
Width: 1894
VWidth: 19
Flags: HW
LayerCount: 2
Fore
SplineSet
1886 419 m 1
 1886 603 l 1
 19 603 l 1
 19 419 l 1
 1886 419 l 1
EndSplineSet
EndChar

StartChar: endash
Encoding: 8211 8211 307
Width: 1113
VWidth: 19
Flags: HW
LayerCount: 2
Fore
SplineSet
1063 419 m 1
 1063 603 l 1
 72 603 l 1
 72 419 l 1
 1063 419 l 1
EndSplineSet
EndChar

StartChar: eng
Encoding: 331 331 308
Width: 1041
VWidth: 19
Flags: HW
LayerCount: 2
Fore
SplineSet
735 54 m 0
 735 -109 720 -141 584 -141 c 2
 524 -141 l 1
 550 -332 l 1
 613 -332 l 0
 934 -332 981 -181 981 112 c 0
 981 618 l 0
 981 870 881 1045 646 1049 c 0
 509 1051 393 984 315 899 c 1
 298 1016 l 1
 89 1016 l 1
 89 24 l 1
 337 24 l 1
 337 697 l 1
 375 776 473 856 578 856 c 0
 725 856 735 746 735 577 c 0
 735 54 l 0
EndSplineSet
EndChar

StartChar: epsilon
Encoding: 949 949 310
Width: 407
VWidth: 19
Flags: HW
LayerCount: 2
Fore
SplineSet
342 610 m 0
 342 673 300 737 215 737 c 0
 131 737 87 673 87 610 c 0
 87 547 131 483 215 483 c 0
 300 483 342 547 342 610 c 0
EndSplineSet
EndChar

StartChar: epsilontonos
Encoding: 941 941 311
Width: 407
VWidth: 19
Flags: HW
LayerCount: 2
Fore
SplineSet
342 610 m 0
 342 673 300 737 215 737 c 0
 131 737 87 673 87 610 c 0
 87 547 131 483 215 483 c 0
 300 483 342 547 342 610 c 0
EndSplineSet
EndChar

StartChar: equal
Encoding: 61 61 312
Width: 1052
VWidth: 19
Flags: HW
LayerCount: 2
Fore
SplineSet
76 680 m 1
 995 680 l 1
 995 881 l 1
 76 881 l 1
 76 680 l 1
76 326 m 1
 995 326 l 1
 995 518 l 1
 76 518 l 1
 76 326 l 1
EndSplineSet
EndChar

StartChar: eta
Encoding: 951 951 313
Width: 407
VWidth: 19
Flags: HW
LayerCount: 2
Fore
SplineSet
342 610 m 0
 342 673 300 737 215 737 c 0
 131 737 87 673 87 610 c 0
 87 547 131 483 215 483 c 0
 300 483 342 547 342 610 c 0
EndSplineSet
EndChar

StartChar: etatonos
Encoding: 942 942 314
Width: 407
VWidth: 19
Flags: HW
LayerCount: 2
Fore
SplineSet
342 610 m 0
 342 673 300 737 215 737 c 0
 131 737 87 673 87 610 c 0
 87 547 131 483 215 483 c 0
 300 483 342 547 342 610 c 0
EndSplineSet
EndChar

StartChar: eth
Encoding: 240 240 315
Width: 1075
VWidth: 19
Flags: HW
LayerCount: 2
Fore
SplineSet
633 842 m 1
 599 852 552 862 515 862 c 0
 247 862 69 691 69 433 c 0
 69 167 267 -17 557 -17 c 0
 851 -17 1041 146 1041 424 c 0
 1040 557 1003 675 947 770 c 1
 875 889 780 996 680 1110 c 1
 861 1183 l 1
 798 1353 l 1
 558 1255 l 1
 454 1377 l 1
 165 1377 l 1
 350 1169 l 1
 192 1105 l 1
 253 936 l 1
 476 1025 l 1
 508 990 595 890 633 842 c 1
302 434 m 0
 302 589 393 688 558 688 c 0
 723 688 818 582 818 430 c 0
 818 278 726 179 564 179 c 0
 399 179 302 285 302 434 c 0
EndSplineSet
EndChar

StartChar: exclam
Encoding: 33 33 316
Width: 386
VWidth: 19
Flags: HW
LayerCount: 2
Fore
SplineSet
323 1335 m 1
 89 1335 l 1
 89 1127 l 1
 153 418 l 1
 266 418 l 1
 323 1127 l 1
 323 1335 l 1
348 139 m 0
 348 218 285 286 202 286 c 0
 118 286 55 218 55 139 c 0
 55 61 118 -7 202 -7 c 0
 285 -7 348 61 348 139 c 0
EndSplineSet
EndChar

StartChar: exclamdown
Encoding: 161 161 317
Width: 386
VWidth: 19
Flags: HW
LayerCount: 2
Fore
SplineSet
266 913 m 1
 152 913 l 1
 89 203 l 1
 89 -4 l 1
 324 -4 l 1
 324 203 l 1
 266 913 l 1
348 1193 m 0
 348 1272 285 1338 202 1338 c 0
 119 1338 55 1273 55 1193 c 0
 55 1114 118 1046 202 1046 c 0
 285 1046 348 1114 348 1193 c 0
EndSplineSet
EndChar

StartChar: f
Encoding: 102 102 318
Width: 648
VWidth: 19
Flags: HW
PickledData: "(dp1
S'org.robofab.postScriptHintData'
p2
(dp3
sS'com.typemytype.robofont.layerData'
p4
(dp5
s."
LayerCount: 2
Fore
SplineSet
25 998 m 1
 20 839 l 1
 175 839 l 1
 175 0 l 1
 422 0 l 1
 422 839 l 1
 650 839 l 1
 650 1017 l 1
 422 1017 l 1
 422 1074 l 0
 422 1166 444 1209 513 1216 c 1
 552 1222 607 1217 663 1209 c 0
 672 1208 l 1
 695 1401 l 1
 686 1403 l 0
 616 1416 540 1422 472 1419 c 1
 248 1406 175 1286 175 1061 c 0
 175 1016 l 1
 25 998 l 1
EndSplineSet
EndChar

StartChar: five
Encoding: 53 53 319
Width: 995
VWidth: 19
Flags: HW
LayerCount: 2
Fore
SplineSet
165 308 m 1
 86 122 l 1
 90 118 l 0
 111 99 289 -9 484 -9 c 0
 779 -9 947 173 947 436 c 0
 947 687 782 863 540 863 c 0
 491 863 439 851 391 828 c 1
 393 891 400 1080 402 1128 c 1
 883 1128 l 1
 899 1335 l 1
 177 1335 l 1
 142 598 l 1
 312 565 l 1
 316 569 l 0
 373 633 440 662 503 662 c 0
 616 662 697 577 697 438 c 0
 697 300 624 198 460 198 c 0
 317 198 188 289 174 300 c 0
 165 308 l 1
EndSplineSet
EndChar

StartChar: fj
Encoding: 65536 -1 320
Width: 903
VWidth: 19
Flags: HW
LayerCount: 2
Fore
SplineSet
655 -96 m 0
 655 -244 654 -293 500 -293 c 2
 444 -293 l 1
 466 -446 l 1
 519 -446 l 0
 766 -446 823 -355 823 -111 c 0
 823 1013 l 1
 321 1013 l 1
 321 1220 329 1272 477 1272 c 0
 570 1272 l 1
 548 1405 l 1
 478 1405 l 0
 237 1405 156 1322 154 1011 c 1
 12 1011 l 1
 12 885 l 1
 154 885 l 1
 154 4 l 1
 321 4 l 1
 321 885 l 1
 655 885 l 1
 655 -96 l 0
823 1175 m 1
 823 1370 l 1
 655 1370 l 1
 655 1175 l 1
 823 1175 l 1
EndSplineSet
EndChar

StartChar: florin
Encoding: 402 402 321
Width: 923
VWidth: 19
Flags: HW
LayerCount: 2
Fore
SplineSet
39 -89 m 1
 24 -276 l 1
 31 -278 l 0
 41 -282 113 -299 144 -299 c 0
 395 -299 451 -65 489 127 c 0
 599 712 l 1
 789 712 l 1
 802 897 l 1
 632 897 l 1
 657 1037 l 1
 672 1118 692 1152 775 1152 c 0
 801 1152 878 1128 885 1125 c 0
 897 1120 l 1
 909 1318 l 1
 901 1321 l 0
 889 1324 801 1343 754 1343 c 0
 534 1343 454 1179 429 1002 c 0
 414 893 l 1
 258 893 l 1
 243 710 l 1
 381 710 l 1
 338 486 302 255 249 43 c 0
 228 -45 199 -114 133 -114 c 0
 120 -114 56 -94 51 -92 c 0
 39 -89 l 1
EndSplineSet
EndChar

StartChar: four
Encoding: 52 52 322
Width: 1099
VWidth: 19
Flags: HW
LayerCount: 2
Fore
SplineSet
656 296 m 1
 656 8 l 1
 913 8 l 1
 913 296 l 1
 1060 296 l 1
 1074 498 l 1
 913 498 l 1
 913 1335 l 1
 603 1335 l 1
 75 473 l 1
 75 296 l 1
 656 296 l 1
657 494 m 1
 334 494 l 1
 659 1055 l 1
 657 494 l 1
EndSplineSet
EndChar

StartChar: fraction
Encoding: 8260 8260 323
Width: 1033
VWidth: 19
Flags: HW
LayerCount: 2
Fore
SplineSet
25 0 m 1
 226 0 l 1
 1029 1347 l 1
 831 1347 l 1
 25 0 l 1
EndSplineSet
EndChar

StartChar: g
Encoding: 103 103 324
Width: 1112
VWidth: 19
Flags: HW
PickledData: "(dp1
S'org.robofab.postScriptHintData'
p2
(dp3
sS'com.typemytype.robofont.layerData'
p4
(dp5
s."
LayerCount: 2
Fore
SplineSet
264 -209 m 0
 253 -207 l 1
 237 -402 l 1
 244 -405 l 0
 245 -405 358 -439 505 -439 c 0
 885 -439 1023 -166 1023 185 c 0
 1023 1017 l 1
 796 1017 l 1
 782 903 l 1
 726 991 632 1041 500 1041 c 0
 265 1041 61 854 61 519 c 0
 61 213 252 0 512 0 c 0
 650 0 734 68 772 136 c 1
 774 119 775 103 775 87 c 0
 775 -85 698 -237 480 -237 c 0
 382 -237 264 -209 264 -209 c 0
778 536 m 0
 778 508 l 1
 776 323 718 195 548 195 c 0
 399 195 316 343 316 526 c 0
 316 716 395 843 561 843 c 1
 704 841 778 733 778 536 c 0
EndSplineSet
EndChar

StartChar: gamma
Encoding: 947 947 325
Width: 407
VWidth: 19
Flags: HW
LayerCount: 2
Fore
SplineSet
342 610 m 0
 342 673 300 737 215 737 c 0
 131 737 87 673 87 610 c 0
 87 547 131 483 215 483 c 0
 300 483 342 547 342 610 c 0
EndSplineSet
EndChar

StartChar: gcommaaccent
Encoding: 291 291 329
Width: 1120
VWidth: 19
Flags: HW
PickledData: "(dp1
S'org.robofab.postScriptHintData'
p2
(dp3
sS'com.typemytype.robofont.layerData'
p4
(dp5
s."
LayerCount: 2
Fore
SplineSet
707 1577 m 1
 540 1577 l 1
 388 1098 l 1
 606 1098 l 1
 707 1577 l 1
EndSplineSet
Refer: 324 103 N 1 0 0 1 0 0 2
EndChar

StartChar: germandbls
Encoding: 223 223 331
Width: 1104
VWidth: 19
Flags: HW
LayerCount: 2
Fore
SplineSet
462 172 m 0
 462 172 443 26 440 13 c 2
 439 11 l 1
 445 0 l 1
 704 0 l 0
 912 0 1076 100 1076 320 c 0
 1076 545 842 646 690 733 c 1
 798 802 927 884 927 1046 c 0
 927 1261 734 1363 519 1363 c 0
 242 1363 89 1202 89 934 c 0
 89 0 l 1
 338 0 l 1
 338 929 l 0
 338 1083 369 1175 519 1175 c 0
 619 1175 687 1127 687 1046 c 0
 687 946 589 899 505 835 c 1
 472 808 438 772 438 722 c 0
 438 661 483 623 520 600 c 0
 649 518 825 459 825 320 c 0
 825 233 775 180 680 180 c 0
 463 180 l 1
 462 172 l 0
EndSplineSet
EndChar

StartChar: grave
Encoding: 96 96 332
Width: 447
VWidth: 19
Flags: HW
LayerCount: 2
Fore
SplineSet
456 1081 m 1
 279 1442 l 1
 -20 1442 l 1
 291 1081 l 1
 456 1081 l 1
EndSplineSet
EndChar

StartChar: greater
Encoding: 62 62 333
Width: 1049
VWidth: 19
Flags: HW
LayerCount: 2
Fore
SplineSet
100 171 m 1
 973 588 l 1
 973 709 l 1
 100 1158 l 1
 100 953 l 1
 704 654 l 1
 100 386 l 1
 100 171 l 1
EndSplineSet
EndChar

StartChar: greaterequal
Encoding: 8805 8805 334
Width: 1074
VWidth: 19
Flags: HW
LayerCount: 2
Fore
SplineSet
129 195 m 1
 975 624 l 1
 975 738 l 1
 130 1177 l 1
 130 980 l 1
 729 680 l 1
 129 394 l 1
 129 195 l 1
123 2 m 1
 979 2 l 1
 979 159 l 1
 123 160 l 1
 123 2 l 1
EndSplineSet
EndChar

StartChar: guillemotleft
Encoding: 171 171 335
Width: 948
VWidth: 19
Flags: HW
LayerCount: 2
Fore
SplineSet
344 120 m 1
 544 173 l 1
 299 519 l 1
 547 866 l 1
 347 918 l 1
 70 547 l 1
 59 504 l 1
 344 120 l 1
715 120 m 1
 914 173 l 1
 669 519 l 1
 918 866 l 1
 717 918 l 1
 424 516 l 1
 715 120 l 1
EndSplineSet
EndChar

StartChar: guillemotright
Encoding: 187 187 336
Width: 1025
VWidth: 19
Flags: HW
LayerCount: 2
Fore
SplineSet
291 120 m 1
 584 522 l 1
 292 918 l 1
 93 866 l 1
 340 519 l 1
 91 173 l 1
 291 120 l 1
671 120 m 1
 966 522 l 1
 674 918 l 1
 477 866 l 1
 719 519 l 1
 473 173 l 1
 671 120 l 1
EndSplineSet
EndChar

StartChar: guilsinglleft
Encoding: 8249 8249 337
Width: 511
VWidth: 19
Flags: HW
LayerCount: 2
Fore
SplineSet
285 155 m 1
 487 155 l 1
 254 524 l 1
 493 898 l 1
 291 898 l 1
 41 524 l 1
 285 155 l 1
EndSplineSet
EndChar

StartChar: guilsinglright
Encoding: 8250 8250 338
Width: 511
VWidth: 19
Flags: HW
LayerCount: 2
Fore
SplineSet
44 898 m 1
 276 525 l 1
 38 155 l 1
 240 155 l 1
 493 525 l 1
 246 898 l 1
 44 898 l 1
EndSplineSet
EndChar

StartChar: h
Encoding: 104 104 339
Width: 1085
VWidth: 19
Flags: HW
PickledData: "(dp1
S'org.robofab.postScriptHintData'
p2
(dp3
sS'com.typemytype.robofont.layerData'
p4
(dp5
s."
LayerCount: 2
Fore
SplineSet
366 1102 m 0
 366 1393 l 1
 113 1376 l 1
 113 0 l 1
 366 0 l 1
 366 491 l 0
 366 578 373 650 387 706 c 1
 425 785 502 844 602 844 c 0
 717 844 757 775 757 618 c 0
 757 0 l 1
 1011 0 l 1
 1011 641 l 0
 1011 918 872 1041 658 1041 c 0
 514 1041 420 979 362 918 c 1
 364 970 366 1074 366 1102 c 0
EndSplineSet
EndChar

StartChar: hbar
Encoding: 295 295 340
Width: 1042
VWidth: 19
Flags: HW
LayerCount: 2
Fore
SplineSet
-1 1249 m 1
 -1 1108 l 1
 89 1108 l 1
 89 0 l 1
 335 0 l 1
 335 686 l 1
 377 771 473 844 586 844 c 0
 707 844 734 772 734 605 c 0
 734 0 l 1
 980 0 l 1
 980 615 l 0
 980 922 832 1034 641 1034 c 0
 517 1034 413 993 335 918 c 1
 335 1108 l 1
 595 1108 l 1
 595 1249 l 1
 335 1249 l 1
 335 1387 l 1
 89 1369 l 1
 89 1249 l 1
 -1 1249 l 1
EndSplineSet
EndChar

StartChar: horncmb
Encoding: 795 795 342
Width: 516
VWidth: 19
Flags: HW
LayerCount: 2
Fore
SplineSet
111 266 m 1
 111 165 l 1
 119 164 l 0
 147 161 175 158 202 158 c 0
 299 158 346 246 346 342 c 0
 346 386 335 434 317 478 c 0
 316 484 l 1
 191 484 l 1
 196 471 l 0
 209 435 222 384 222 343 c 0
 222 296 208 265 164 265 c 0
 150 265 134 266 120 266 c 0
 111 266 l 1
EndSplineSet
EndChar

StartChar: hungarumlaut
Encoding: 733 733 343
Width: 867
VWidth: 19
Flags: HW
LayerCount: 2
Fore
SplineSet
266 1046 m 1
 581 1386 l 1
 355 1386 l 1
 123 1046 l 1
 266 1046 l 1
538 1046 m 1
 863 1386 l 1
 634 1386 l 1
 397 1046 l 1
 538 1046 l 1
EndSplineSet
EndChar

StartChar: hyphen
Encoding: 45 45 344
Width: 594
VWidth: 19
Flags: HW
LayerCount: 2
Fore
SplineSet
553 406 m 1
 553 606 l 1
 57 606 l 1
 57 406 l 1
 553 406 l 1
EndSplineSet
EndChar

StartChar: i
Encoding: 105 105 345
Width: 447
VWidth: 19
Flags: HW
LayerCount: 2
Fore
SplineSet
116 0 m 1
 370 0 l 1
 370 1017 l 1
 116 1017 l 1
 116 0 l 1
116 1139 m 1
 370 1139 l 1
 370 1357 l 1
 116 1357 l 1
 116 1139 l 1
EndSplineSet
EndChar

StartChar: iota
Encoding: 953 953 354
Width: 407
VWidth: 19
Flags: HW
LayerCount: 2
Fore
SplineSet
342 610 m 0
 342 673 300 737 215 737 c 0
 131 737 87 673 87 610 c 0
 87 547 131 483 215 483 c 0
 300 483 342 547 342 610 c 0
EndSplineSet
EndChar

StartChar: iotatonos
Encoding: 943 943 357
Width: 407
VWidth: 19
Flags: HW
LayerCount: 2
Fore
SplineSet
342 610 m 0
 342 673 300 737 215 737 c 0
 131 737 87 673 87 610 c 0
 87 547 131 483 215 483 c 0
 300 483 342 547 342 610 c 0
EndSplineSet
EndChar

StartChar: j
Encoding: 106 106 359
Width: 461
VWidth: 19
Flags: HW
LayerCount: 2
Fore
SplineSet
141 -4 m 0
 141 -149 128 -187 -13 -187 c 2
 -75 -187 l 1
 -46 -379 l 1
 14 -379 l 0
 332 -379 394 -240 394 40 c 0
 394 1017 l 1
 141 1017 l 1
 141 -4 l 0
394 1139 m 1
 394 1357 l 1
 141 1357 l 1
 141 1139 l 1
 394 1139 l 1
EndSplineSet
EndChar

StartChar: k
Encoding: 107 107 361
Width: 1016
VWidth: 19
Flags: HW
PickledData: "(dp1
S'org.robofab.postScriptHintData'
p2
(dp3
sS'com.typemytype.robofont.layerData'
p4
(dp5
s."
LayerCount: 2
Fore
SplineSet
113 0 m 1
 366 0 l 1
 366 381 l 1
 448 449 l 1
 763 0 l 1
 1070 0 l 1
 638 580 l 1
 1047 1017 l 1
 742 1017 l 1
 739 1010 l 1
 621 882 488 749 381 618 c 1
 381 618 371 606 362 597 c 1
 366 773 l 1
 366 1389 l 1
 365 1390 364 1391 363 1392 c 1
 113 1376 l 1
 113 0 l 1
EndSplineSet
EndChar

StartChar: l
Encoding: 108 108 364
Width: 607
VWidth: 19
Flags: HW
PickledData: "(dp1
S'org.robofab.postScriptHintData'
p2
(dp3
sS'com.typemytype.robofont.layerData'
p4
(dp5
s."
LayerCount: 2
Fore
SplineSet
366 1393 m 1
 113 1376 l 1
 113 401 l 0
 113 124 174 -13 451 -13 c 0
 526 -13 594 4 594 4 c 0
 601 7 l 1
 570 187 l 1
 561 185 l 0
 561 185 525 178 493 178 c 0
 417 178 366 188 366 387 c 0
 366 1393 l 1
EndSplineSet
EndChar

StartChar: lambda
Encoding: 955 955 366
Width: 407
VWidth: 19
Flags: HW
LayerCount: 2
Fore
SplineSet
342 610 m 0
 342 673 300 737 215 737 c 0
 131 737 87 673 87 610 c 0
 87 547 131 483 215 483 c 0
 300 483 342 547 342 610 c 0
EndSplineSet
EndChar

StartChar: less
Encoding: 60 60 369
Width: 1048
VWidth: 19
Flags: HW
LayerCount: 2
Fore
SplineSet
969 169 m 1
 969 382 l 1
 968 384 l 0
 967 385 968 383 967 384 c 1
 364 654 l 1
 969 952 l 1
 969 1157 l 1
 96 710 l 1
 96 588 l 1
 969 169 l 1
EndSplineSet
EndChar

StartChar: lessequal
Encoding: 8804 8804 370
Width: 1074
VWidth: 19
Flags: HW
LayerCount: 2
Fore
SplineSet
970 194 m 1
 970 394 l 1
 369 681 l 1
 970 982 l 1
 970 1176 l 1
 123 738 l 1
 123 623 l 1
 970 194 l 1
117 2 m 1
 975 2 l 1
 975 160 l 1
 117 159 l 1
 117 2 l 1
EndSplineSet
EndChar

StartChar: logicalnot
Encoding: 172 172 371
Width: 1129
VWidth: 19
Flags: HW
LayerCount: 2
Fore
SplineSet
112 771 m 1
 112 580 l 1
 841 580 l 1
 841 229 l 1
 1031 229 l 1
 1031 771 l 1
 112 771 l 1
EndSplineSet
EndChar

StartChar: lozenge
Encoding: 9674 9674 372
Width: 1077
VWidth: 19
Flags: HW
LayerCount: 2
Fore
SplineSet
483 -41 m 1
 606 -41 l 1
 1019 667 l 1
 615 1377 l 1
 490 1377 l 1
 81 666 l 1
 483 -41 l 1
544 168 m 1
 455 335 366 503 279 668 c 1
 369 833 463 998 553 1165 c 1
 640 998 733 832 820 667 c 1
 730 502 635 337 544 168 c 1
EndSplineSet
EndChar

StartChar: lslash
Encoding: 322 322 373
Width: 597
VWidth: 19
Flags: HW
LayerCount: 2
Fore
SplineSet
21 559 m 1
 120 619 l 1
 120 424 l 0
 120 131 174 -13 464 -13 c 0
 506 -13 601 -2 612 -1 c 0
 621 0 l 1
 605 189 l 1
 595 188 l 0
 584 187 515 181 505 181 c 0
 372 181 367 226 367 404 c 0
 367 771 l 1
 507 859 l 1
 507 1049 l 1
 367 963 l 1
 367 1384 l 1
 366 1385 366 1386 365 1387 c 1
 120 1368 l 1
 120 807 l 1
 21 747 l 1
 21 559 l 1
EndSplineSet
EndChar

StartChar: m
Encoding: 109 109 374
Width: 1670
VWidth: 19
Flags: HW
PickledData: "(dp1
S'org.robofab.postScriptHintData'
p2
(dp3
sS'com.typemytype.robofont.layerData'
p4
(dp5
s."
LayerCount: 2
Fore
SplineSet
976 592 m 0
 977 598 l 1
 972 599 l 1
 972 595 l 0
 972 593 972 597 972 595 c 0
 972 593 l 1
 976 592 l 0
983 595 m 1
 983 596 l 1
 989 647 1001 690 1017 727 c 1
 1053 802 1115 844 1201 844 c 0
 1316 844 1342 762 1342 579 c 0
 1342 0 l 1
 1596 0 l 1
 1596 646 l 0
 1596 897 1495 1041 1261 1041 c 0
 1127 1041 1016 986 944 892 c 1
 906 962 823 1041 660 1041 c 0
 481 1041 392 962 342 903 c 1
 318 1017 l 1
 112 1017 l 1
 112 1007 l 0
 112 993 113 9 113 9 c 0
 113 0 l 1
 366 0 l 1
 366 494 l 0
 366 581 373 656 386 713 c 1
 421 789 485 844 583 844 c 0
 700 844 732 754 732 590 c 0
 732 0 l 1
 983 0 l 1
 983 595 l 1
EndSplineSet
EndChar

StartChar: macron
Encoding: 175 175 375
Width: 801
VWidth: 19
Flags: HW
LayerCount: 2
Fore
SplineSet
738 1239 m 1
 738 1398 l 1
 89 1398 l 1
 89 1239 l 1
 738 1239 l 1
EndSplineSet
EndChar

StartChar: minus
Encoding: 8722 8722 376
Width: 1240
VWidth: 19
Flags: HW
LayerCount: 2
Fore
SplineSet
1106 425 m 1
 1106 609 l 1
 152 609 l 1
 152 425 l 1
 1106 425 l 1
EndSplineSet
EndChar

StartChar: multiply
Encoding: 215 215 377
Width: 1230
VWidth: 19
Flags: HW
LayerCount: 2
Fore
SplineSet
903 130 m 1
 1038 272 l 1
 1031 279 l 0
 968 342 842 473 777 538 c 1
 1038 809 l 1
 902 947 l 1
 639 678 l 1
 373 947 l 1
 241 810 l 1
 499 538 l 1
 241 271 l 1
 373 130 l 1
 639 397 l 1
 903 130 l 1
EndSplineSet
EndChar

StartChar: n
Encoding: 110 110 378
Width: 1100
VWidth: 19
Flags: HW
PickledData: "(dp1
S'org.robofab.postScriptHintData'
p2
(dp3
sS'com.typemytype.robofont.layerData'
p4
(dp5
s."
LayerCount: 2
Fore
SplineSet
342 902 m 1
 318 1017 l 1
 112 1017 l 1
 112 0 l 1
 366 0 l 1
 366 496 l 0
 366 582 369 656 382 713 c 1
 418 789 500 844 598 844 c 0
 724 844 756 761 757 612 c 0
 757 0 l 1
 1011 0 l 1
 1011 640 l 0
 1011 891 898 1041 663 1041 c 0
 522 1041 422 979 342 902 c 1
EndSplineSet
EndChar

StartChar: nine
Encoding: 57 57 382
Width: 1065
VWidth: 19
Flags: HW
LayerCount: 2
Fore
SplineSet
58 924 m 0
 58 671 250 502 506 502 c 0
 536 502 560 508 583 515 c 1
 194 10 l 1
 507 10 l 1
 510 13 l 1
 510 13 853 475 874 503 c 1
 963 626 1044 750 1044 922 c 0
 1044 1190 837 1363 548 1363 c 0
 269 1363 58 1190 58 924 c 0
321 930 m 0
 321 1071 408 1166 560 1166 c 0
 708 1166 784 1074 784 934 c 0
 784 789 720 687 556 687 c 0
 395 687 321 783 321 930 c 0
EndSplineSet
EndChar

StartChar: notequal
Encoding: 8800 8800 383
Width: 1154
VWidth: 19
Flags: HW
LayerCount: 2
Fore
SplineSet
420 38 m 1
 543 288 l 1
 1057 288 l 1
 1045 455 l 1
 623 455 l 1
 722 651 l 1
 1057 651 l 1
 1044 831 l 1
 801 831 l 1
 906 1043 l 1
 892 1043 l 1
 886 1044 747 1064 747 1064 c 0
 740 1065 l 1
 620 831 l 1
 120 831 l 1
 132 652 l 1
 542 652 l 1
 445 456 l 1
 122 456 l 1
 132 288 l 1
 364 288 l 1
 256 63 l 1
 420 38 l 1
EndSplineSet
EndChar

StartChar: nu
Encoding: 957 957 385
Width: 407
VWidth: 19
Flags: HW
LayerCount: 2
Fore
SplineSet
342 610 m 0
 342 673 300 737 215 737 c 0
 131 737 87 673 87 610 c 0
 87 547 131 483 215 483 c 0
 300 483 342 547 342 610 c 0
EndSplineSet
EndChar

StartChar: numbersign
Encoding: 35 35 386
Width: 1045
VWidth: 19
Flags: HW
LayerCount: 2
Fore
SplineSet
151 -13 m 1
 338 -13 l 1
 408 369 l 1
 554 369 l 1
 485 -13 l 1
 676 -13 l 1
 747 369 l 1
 940 369 l 1
 949 547 l 1
 776 547 l 1
 825 809 l 1
 1008 809 l 1
 1020 990 l 1
 859 990 l 1
 925 1336 l 1
 737 1336 l 1
 672 990 l 1
 524 990 l 1
 590 1336 l 1
 399 1336 l 1
 329 990 l 1
 118 990 l 1
 111 808 l 1
 297 808 l 1
 252 547 l 1
 49 547 l 1
 40 369 l 1
 218 369 l 1
 151 -13 l 1
440 547 m 1
 490 809 l 1
 638 809 l 1
 590 547 l 1
 440 547 l 1
EndSplineSet
EndChar

StartChar: o
Encoding: 111 111 387
Width: 1071
VWidth: 19
Flags: HW
PickledData: "(dp1
S'org.robofab.postScriptHintData'
p2
(dp3
sS'com.typemytype.robofont.layerData'
p4
(dp5
s."
LayerCount: 2
Fore
SplineSet
318 511 m 0
 318 729 394 844 543 844 c 0
 694 844 768 730 768 512 c 0
 768 296 694 178 544 178 c 0
 393 178 318 296 318 511 c 0
1021 512 m 0
 1021 825 845 1041 548 1041 c 0
 240 1041 66 833 66 512 c 0
 66 200 244 -18 539 -18 c 0
 847 -18 1021 195 1021 512 c 0
EndSplineSet
EndChar

StartChar: oe
Encoding: 339 339 392
Width: 1657
VWidth: 19
Flags: HW
LayerCount: 2
Fore
SplineSet
882 872 m 1
 810 973 694 1034 532 1034 c 0
 208 1034 55 806 55 511 c 0
 55 224 208 -18 531 -18 c 0
 694 -18 815 52 880 148 c 1
 951 39 1076 -18 1252 -18 c 0
 1414 -18 1513 30 1598 95 c 0
 1604 100 l 1
 1532 256 l 1
 1522 249 l 0
 1462 204 1379 161 1257 161 c 0
 1096 161 1004 266 997 451 c 1
 1625 451 l 1
 1625 461 l 0
 1625 466 1626 517 1626 540 c 0
 1626 816 1511 1034 1225 1034 c 0
 1068 1033 949 977 882 872 c 1
295 510 m 0
 295 733 386 856 530 856 c 0
 675 856 768 742 768 511 c 0
 768 288 672 159 531 159 c 0
 388 159 295 292 295 510 c 0
1211 857 m 0
 1333 857 1398 781 1399 614 c 1
 1000 614 l 1
 1018 804 1119 857 1211 857 c 0
EndSplineSet
EndChar

StartChar: ogonek
Encoding: 731 731 393
Width: 504
VWidth: 19
Flags: HW
LayerCount: 2
Fore
SplineSet
271 68 m 1
 269 67 l 2
 198 26 95 -49 95 -172 c 0
 95 -286 186 -340 290 -340 c 0
 349 -340 410 -325 465 -304 c 0
 470 -302 l 1
 470 -157 l 1
 458 -162 l 0
 457 -162 458 -163 457 -163 c 0
 445 -168 386 -194 334 -194 c 0
 296 -194 270 -159 270 -125 c 0
 270 -70 302 -6 376 51 c 1
 400 68 l 1
 271 68 l 1
EndSplineSet
EndChar

StartChar: omega
Encoding: 969 969 398
Width: 407
VWidth: 19
Flags: HW
LayerCount: 2
Fore
SplineSet
342 610 m 0
 342 673 300 737 215 737 c 0
 131 737 87 673 87 610 c 0
 87 547 131 483 215 483 c 0
 300 483 342 547 342 610 c 0
EndSplineSet
EndChar

StartChar: omegatonos
Encoding: 974 974 399
Width: 407
VWidth: 19
Flags: HW
LayerCount: 2
Fore
SplineSet
342 610 m 0
 342 673 300 737 215 737 c 0
 131 737 87 673 87 610 c 0
 87 547 131 483 215 483 c 0
 300 483 342 547 342 610 c 0
EndSplineSet
EndChar

StartChar: omicrontonos
Encoding: 972 972 401
Width: 407
VWidth: 19
Flags: HW
LayerCount: 2
Fore
SplineSet
342 610 m 0
 342 673 300 737 215 737 c 0
 131 737 87 673 87 610 c 0
 87 547 131 483 215 483 c 0
 300 483 342 547 342 610 c 0
EndSplineSet
EndChar

StartChar: one
Encoding: 49 49 402
Width: 603
VWidth: 19
Flags: HW
LayerCount: 2
Fore
SplineSet
264 1097 m 1
 264 9 l 1
 509 9 l 1
 509 1337 l 1
 299 1337 l 1
 297 1334 l 1
 283 1323 54 1210 38 1203 c 0
 33 1201 l 1
 33 1000 l 1
 46 1005 l 0
 59 1010 217 1076 264 1097 c 1
EndSplineSet
EndChar

StartChar: onehalf
Encoding: 189 189 403
Width: 1593
VWidth: 19
Flags: HW
LayerCount: 2
Fore
SplineSet
232 1186 m 1
 232 691 l 1
 106 691 l 1
 106 553 l 1
 545 553 l 1
 545 691 l 1
 421 691 l 1
 421 1358 l 1
 257 1359 l 1
 254 1356 l 0
 248 1350 106 1267 94 1261 c 0
 89 1258 l 1
 89 1105 l 1
 102 1112 l 0
 111 1116 199 1167 232 1186 c 1
1360 510 m 0
 1360 388 1182 268 1006 115 c 2
 1003 113 l 1
 1002 -26 l 1
 1514 -26 l 1
 1531 114 l 1
 1250 114 l 1
 1411 249 1531 342 1531 515 c 0
 1531 678 1402 772 1265 772 c 0
 1150 772 1050 733 994 651 c 0
 991 646 l 1
 1059 523 l 1
 1068 535 l 0
 1109 591 1183 618 1246 618 c 0
 1302 618 1360 579 1360 510 c 0
464 19 m 1
 1378 1347 l 1
 1178 1347 l 1
 262 19 l 1
 464 19 l 1
EndSplineSet
EndChar

StartChar: onequarter
Encoding: 188 188 404
Width: 1525
VWidth: 19
Flags: HW
LayerCount: 2
Fore
SplineSet
87 544 m 1
 527 544 l 1
 527 696 l 1
 402 696 l 1
 402 1358 l 1
 261 1359 l 1
 258 1354 l 1
 242 1342 87 1267 75 1260 c 0
 70 1257 l 1
 70 1103 l 1
 85 1111 l 0
 91 1114 180 1155 214 1171 c 1
 214 696 l 1
 87 696 l 1
 87 544 l 1
1223 9 m 1
 1382 9 l 1
 1383 161 l 1
 1488 161 l 1
 1485 301 l 1
 1384 301 l 1
 1384 798 l 1
 1213 798 l 1
 866 305 l 1
 866 161 l 1
 1223 161 l 1
 1223 9 l 1
258 0 m 1
 459 0 l 1
 1370 1347 l 1
 1174 1347 l 1
 258 0 l 1
1064 301 m 1
 1221 560 l 1
 1221 301 l 1
 1064 301 l 1
EndSplineSet
EndChar

StartChar: ordfeminine
Encoding: 170 170 405
Width: 664
VWidth: 19
Flags: HW
LayerCount: 2
Fore
SplineSet
443 1134 m 1
 443 1114 l 1
 280 1096 60 1079 60 885 c 0
 60 754 157 686 269 686 c 0
 337 686 417 717 459 762 c 1
 472 698 l 1
 611 698 l 1
 610 709 l 0
 609 726 609 810 609 813 c 0
 609 1156 l 0
 609 1325 493 1384 358 1384 c 0
 264 1384 163 1359 79 1315 c 0
 71 1311 l 1
 115 1196 l 1
 125 1200 l 0
 213 1236 286 1250 343 1250 c 0
 413 1250 442 1222 443 1134 c 1
613 486 m 1
 613 611 l 1
 94 611 l 1
 94 486 l 1
 613 486 l 1
219 883 m 0
 219 958 302 977 443 996 c 1
 443 909 l 1
 399 846 341 813 286 813 c 0
 248 813 219 834 219 883 c 0
EndSplineSet
EndChar

StartChar: oslash
Encoding: 248 248 406
Width: 1039
VWidth: 19
Flags: HW
LayerCount: 2
Fore
SplineSet
54 510 m 0
 54 299 136 128 291 43 c 1
 203 -165 l 1
 276 -203 l 1
 367 9 l 1
 416 -6 469 -14 529 -14 c 0
 840 -14 1006 212 1006 510 c 0
 1006 721 928 889 779 975 c 1
 865 1152 l 1
 785 1177 l 1
 700 1010 l 1
 648 1026 596 1034 533 1034 c 0
 221 1034 54 815 54 510 c 0
293 516 m 0
 293 729 379 853 530 853 c 0
 567 853 597 847 624 834 c 1
 372 248 l 1
 319 307 293 400 293 516 c 0
443 181 m 1
 695 765 l 1
 743 705 766 615 766 500 c 0
 766 291 683 164 531 164 c 0
 498 164 468 170 443 181 c 1
EndSplineSet
EndChar

StartChar: p
Encoding: 112 112 409
Width: 1101
VWidth: 19
Flags: HW
PickledData: "(dp1
S'org.robofab.postScriptHintData'
p2
(dp3
sS'com.typemytype.robofont.layerData'
p4
(dp5
s."
LayerCount: 2
Fore
SplineSet
353 906 m 1
 331 1017 l 1
 112 1017 l 1
 112 -408 l 1
 366 -395 l 1
 366 -15 l 0
 366 13 364 54 361 99 c 1
 428 28 522 -18 637 -18 c 0
 897 -18 1052 207 1052 513 c 0
 1052 806 906 1041 658 1041 c 0
 530 1041 412 976 353 906 c 1
364 530 m 0
 366 755 449 844 585 844 c 0
 712 844 799 746 799 515 c 0
 799 291 715 179 589 179 c 0
 445 179 364 277 364 530 c 0
EndSplineSet
EndChar

StartChar: paragraph
Encoding: 182 182 410
Width: 1054
VWidth: 19
Flags: HW
LayerCount: 2
Fore
SplineSet
367 -134 m 1
 555 -134 l 1
 555 1188 l 1
 679 1188 l 1
 679 -134 l 1
 847 -134 l 1
 847 1188 l 1
 920 1188 l 1
 920 1360 l 1
 541 1360 l 0
 278 1360 64 1276 64 1036 c 0
 64 861 186 724 367 705 c 1
 367 -134 l 1
EndSplineSet
EndChar

StartChar: parenleft
Encoding: 40 40 411
Width: 570
VWidth: 19
Flags: HW
LayerCount: 2
Fore
SplineSet
333 -245 m 1
 565 -245 l 1
 555 -226 l 1
 555 -226 l 0
 460 -90 317 238 317 552 c 0
 317 868 457 1201 556 1343 c 0
 556 1343 l 1
 566 1362 l 1
 332 1362 l 1
 329 1354 l 1
 177 1139 76 869 76 550 c 0
 76 234 180 -29 330 -237 c 1
 333 -245 l 1
EndSplineSet
EndChar

StartChar: parenright
Encoding: 41 41 412
Width: 570
VWidth: 19
Flags: HW
LayerCount: 2
Fore
SplineSet
26 -245 m 1
 258 -245 l 1
 260 -237 l 1
 411 -28 514 233 514 550 c 0
 514 868 410 1140 260 1354 c 1
 258 1362 l 1
 25 1362 l 1
 34 1343 l 1
 34 1343 l 0
 133 1201 273 868 273 552 c 0
 273 238 129 -90 35 -226 c 0
 35 -226 l 1
 26 -245 l 1
EndSplineSet
EndChar

StartChar: period
Encoding: 46 46 413
Width: 412
VWidth: 19
Flags: HW
PickledData: "(dp1
S'org.robofab.postScriptHintData'
p2
(dp3
sS'com.typemytype.robofont.layerData'
p4
(dp5
s."
LayerCount: 2
Fore
SplineSet
367 148 m 0
 367 227 304 295 221 295 c 0
 137 295 73 227 73 148 c 0
 73 69 138 3 221 3 c 0
 304 3 367 70 367 148 c 0
EndSplineSet
EndChar

StartChar: phi
Encoding: 966 966 414
Width: 407
VWidth: 19
Flags: HW
LayerCount: 2
Fore
SplineSet
342 610 m 0
 342 673 300 737 215 737 c 0
 131 737 87 673 87 610 c 0
 87 547 131 483 215 483 c 0
 300 483 342 547 342 610 c 0
EndSplineSet
EndChar

StartChar: pi
Encoding: 960 960 415
Width: 1247
VWidth: 19
Flags: HW
LayerCount: 2
Fore
SplineSet
514 825 m 1
 808 825 l 1
 805 288 l 0
 805 121 844 -6 1023 -6 c 0
 1065 -6 1103 -1 1143 6 c 0
 1151 7 l 1
 1151 14 l 1
 1151 16 1160 160 1162 203 c 0
 1163 216 l 1
 1150 213 l 0
 1121 204 1087 191 1060 191 c 0
 1013 191 1007 222 1007 298 c 0
 1007 841 l 1
 1181 841 l 1
 1181 1024 l 1
 381 1024 l 0
 227 1024 133 1017 50 954 c 1
 45 950 l 1
 71 772 l 1
 83 779 l 0
 146 817 207 839 300 846 c 1
 295 740 256 199 167 14 c 0
 161 1 l 1
 371 1 l 1
 374 6 l 0
 470 191 502 531 514 825 c 1
EndSplineSet
EndChar

StartChar: plus
Encoding: 43 43 416
Width: 1035
VWidth: 19
Flags: HW
LayerCount: 2
Fore
SplineSet
429 130 m 1
 622 130 l 1
 622 502 l 1
 983 502 l 1
 983 692 l 1
 623 692 l 1
 623 1065 l 1
 430 1065 l 1
 430 692 l 1
 68 692 l 1
 68 502 l 1
 429 502 l 1
 429 130 l 1
EndSplineSet
EndChar

StartChar: plusminus
Encoding: 177 177 417
Width: 1131
VWidth: 19
Flags: HW
LayerCount: 2
Fore
SplineSet
477 241 m 1
 671 241 l 1
 671 575 l 1
 1006 575 l 1
 1006 775 l 1
 670 775 l 1
 670 1101 l 1
 477 1101 l 1
 477 775 l 1
 142 775 l 1
 142 575 l 1
 477 575 l 1
 477 241 l 1
142 0 m 1
 1006 0 l 1
 1006 177 l 1
 142 177 l 1
 142 0 l 1
EndSplineSet
EndChar

StartChar: psi
Encoding: 968 968 418
Width: 407
VWidth: 19
Flags: HW
LayerCount: 2
Fore
SplineSet
342 610 m 0
 342 673 300 737 215 737 c 0
 131 737 87 673 87 610 c 0
 87 547 131 483 215 483 c 0
 300 483 342 547 342 610 c 0
EndSplineSet
EndChar

StartChar: q
Encoding: 113 113 419
Width: 1105
VWidth: 19
Flags: HW
PickledData: "(dp1
S'org.robofab.postScriptHintData'
p2
(dp3
sS'com.typemytype.robofont.layerData'
p4
(dp5
s."
LayerCount: 2
Fore
SplineSet
494 -18 m 0
 640 -18 718 54 756 107 c 1
 754 71 753 46 753 16 c 0
 753 -408 l 1
 1008 -393 l 1
 1008 1017 l 1
 784 1017 l 1
 768 907 l 1
 718 973 632 1041 490 1041 c 0
 218 1041 67 817 67 513 c 0
 67 202 235 -18 494 -18 c 0
319 511 m 0
 319 744 410 843 537 843 c 0
 682 843 763 746 763 495 c 1
 760 263 679 177 540 177 c 0
 407 177 319 283 319 511 c 0
EndSplineSet
EndChar

StartChar: question
Encoding: 63 63 420
Width: 773
VWidth: 19
Flags: HW
LayerCount: 2
Fore
SplineSet
357 1177 m 0
 464 1177 526 1116 527 1019 c 0
 527 861 316 688 283 429 c 1
 281 418 l 1
 392 418 l 1
 395 423 l 0
 528 691 732 830 732 1050 c 0
 732 1265 543 1363 381 1363 c 0
 235 1363 135 1327 45 1267 c 0
 38 1263 l 1
 108 1098 l 1
 117 1103 l 0
 169 1135 242 1177 357 1177 c 0
478 139 m 0
 478 218 418 286 338 286 c 0
 256 286 191 218 191 139 c 0
 191 60 257 -7 338 -7 c 0
 418 -7 478 61 478 139 c 0
EndSplineSet
EndChar

StartChar: quotedbl
Encoding: 34 34 422
Width: 689
VWidth: 19
Flags: HW
LayerCount: 2
Fore
SplineSet
311 1347 m 1
 90 1347 l 1
 122 848 l 1
 283 848 l 1
 311 1347 l 1
618 1347 m 1
 399 1347 l 1
 429 854 l 1
 589 854 l 1
 618 1347 l 1
EndSplineSet
EndChar

StartChar: quotedblbase
Encoding: 8222 8222 423
Width: 880
VWidth: 19
Flags: HW
LayerCount: 2
Fore
SplineSet
307 -230 m 1
 461 227 l 1
 237 227 l 1
 135 -230 l 1
 307 -230 l 1
621 -230 m 1
 773 227 l 1
 551 227 l 1
 444 -230 l 1
 621 -230 l 1
EndSplineSet
EndChar

StartChar: quotedblleft
Encoding: 8220 8220 424
Width: 649
VWidth: 19
Flags: HW
LayerCount: 2
Fore
SplineSet
44 1271 m 1
 199 897 l 1
 353 1009 l 1
 252 1380 l 1
 44 1271 l 1
317 1271 m 1
 463 897 l 1
 623 1009 l 1
 517 1381 l 1
 317 1271 l 1
EndSplineSet
EndChar

StartChar: quotedblright
Encoding: 8221 8221 425
Width: 841
VWidth: 19
Flags: HW
LayerCount: 2
Fore
SplineSet
320 908 m 1
 458 1378 l 1
 251 1378 l 1
 150 908 l 1
 320 908 l 1
578 900 m 1
 726 1378 l 1
 510 1378 l 1
 418 900 l 1
 578 900 l 1
EndSplineSet
EndChar

StartChar: quoteleft
Encoding: 8216 8216 426
Width: 384
VWidth: 19
Flags: HW
LayerCount: 2
Fore
SplineSet
44 1271 m 1
 199 898 l 1
 359 1009 l 1
 251 1380 l 1
 44 1271 l 1
EndSplineSet
EndChar

StartChar: quoteright
Encoding: 8217 8217 427
Width: 383
VWidth: 19
Flags: HW
LayerCount: 2
Fore
SplineSet
214 920 m 1
 362 1378 l 1
 145 1378 l 1
 46 920 l 1
 214 920 l 1
EndSplineSet
EndChar

StartChar: quotesinglbase
Encoding: 8218 8218 428
Width: 488
VWidth: 19
Flags: HW
LayerCount: 2
Fore
SplineSet
266 -230 m 1
 414 227 l 1
 196 227 l 1
 96 -230 l 1
 266 -230 l 1
EndSplineSet
EndChar

StartChar: quotesingle
Encoding: 39 39 429
Width: 383
VWidth: 19
Flags: HW
LayerCount: 2
Fore
SplineSet
273 833 m 1
 298 1341 l 1
 88 1341 l 1
 120 833 l 1
 273 833 l 1
EndSplineSet
EndChar

StartChar: r
Encoding: 114 114 430
Width: 702
VWidth: 19
Flags: HW
PickledData: "(dp1
S'org.robofab.postScriptHintData'
p2
(dp3
sS'com.typemytype.robofont.layerData'
p4
(dp5
s."
LayerCount: 2
Fore
SplineSet
355 860 m 1
 327 1017 l 1
 114 1017 l 1
 114 0 l 1
 367 0 l 1
 367 551 l 0
 367 707 450 807 622 807 c 0
 648 807 673 805 695 801 c 0
 706 799 l 1
 710 1015 l 1
 702 1017 l 0
 683 1021 662 1021 639 1021 c 0
 521 1021 418 950 355 860 c 1
EndSplineSet
EndChar

StartChar: registered
Encoding: 174 174 434
Width: 1526
VWidth: 19
Flags: HW
LayerCount: 2
Fore
SplineSet
1086 877 m 0
 1086 1052 958 1119 774 1119 c 2
 487 1119 l 1
 487 251 l 1
 637 251 l 1
 637 620 l 1
 758 620 l 1
 788 590 925 317 957 256 c 0
 959 251 l 1
 1128 251 l 1
 1121 266 l 0
 1047 402 958 569 904 641 c 1
 1038 675 1086 750 1086 877 c 0
736 988 m 0
 873 988 935 984 935 875 c 0
 935 768 868 752 744 752 c 0
 636 752 l 1
 636 988 l 1
 736 988 l 0
195 688 m 0
 195 1007 438 1268 769 1268 c 0
 1104 1268 1346 1007 1346 687 c 0
 1346 367 1104 108 770 108 c 0
 439 108 195 367 195 688 c 0
1469 688 m 0
 1469 1090 1146 1377 769 1377 c 0
 394 1377 72 1091 72 688 c 0
 72 285 395 0 770 0 c 0
 1147 0 1469 285 1469 688 c 0
EndSplineSet
EndChar

StartChar: ring
Encoding: 730 730 436
Width: 581
VWidth: 19
Flags: HW
LayerCount: 2
Fore
SplineSet
212 1235 m 0
 212 1283 244 1330 297 1330 c 0
 352 1330 383 1284 383 1235 c 0
 383 1184 352 1140 297 1140 c 0
 240 1140 212 1183 212 1235 c 0
503 1235 m 0
 503 1337 428 1430 297 1430 c 0
 167 1430 91 1338 91 1235 c 0
 91 1132 168 1039 297 1039 c 0
 426 1039 503 1132 503 1235 c 0
EndSplineSet
EndChar

StartChar: s
Encoding: 115 115 437
Width: 860
VWidth: 19
Flags: HW
PickledData: "(dp1
S'org.robofab.postScriptHintData'
p2
(dp3
sS'com.typemytype.robofont.layerData'
p4
(dp5
s."
LayerCount: 2
Fore
SplineSet
342 447 m 1
 341 447 344 453 344 453 c 1
 342 448 l 1
 354 442 384 427 394 421 c 0
 394 421 l 1
 395 421 l 0
 516 361 574 340 574 275 c 1
 572 204 519 167 424 167 c 0
 324 167 187 212 117 250 c 0
 105 257 l 1
 79 61 l 1
 84 57 l 0
 169 9 286 -17 432 -17 c 0
 673 -17 817 99 817 306 c 0
 817 466 723 540 552 612 c 0
 534 620 514 630 497 637 c 1
 370 694 323 709 323 768 c 0
 323 827 371 854 458 854 c 0
 547 854 643 825 717 790 c 0
 726 785 l 1
 791 965 l 1
 783 969 l 0
 687 1017 578 1041 455 1041 c 0
 229 1041 82 940 82 748 c 0
 83 586 173 526 342 447 c 1
EndSplineSet
EndChar

StartChar: semicolon
Encoding: 59 59 443
Width: 389
VWidth: 19
Flags: HW
LayerCount: 2
Fore
SplineSet
89 -287 m 1
 247 -287 l 1
 363 248 l 1
 139 248 l 1
 89 -287 l 1
105 767 m 1
 360 767 l 1
 360 1022 l 1
 105 1022 l 1
 105 767 l 1
EndSplineSet
EndChar

StartChar: seven
Encoding: 55 55 444
Width: 906
VWidth: 19
Flags: HW
LayerCount: 2
Fore
SplineSet
612 1138 m 1
 193 -1 l 1
 449 -1 l 1
 901 1178 l 1
 901 1336 l 1
 55 1336 l 1
 52 1138 l 1
 612 1138 l 1
EndSplineSet
EndChar

StartChar: sigma
Encoding: 963 963 445
Width: 407
VWidth: 19
Flags: HW
LayerCount: 2
Fore
SplineSet
342 610 m 0
 342 673 300 737 215 737 c 0
 131 737 87 673 87 610 c 0
 87 547 131 483 215 483 c 0
 300 483 342 547 342 610 c 0
EndSplineSet
EndChar

StartChar: sigma1
Encoding: 962 962 446
Width: 407
VWidth: 19
Flags: HW
LayerCount: 2
Fore
SplineSet
342 610 m 0
 342 673 300 737 215 737 c 0
 131 737 87 673 87 610 c 0
 87 547 131 483 215 483 c 0
 300 483 342 547 342 610 c 0
EndSplineSet
EndChar

StartChar: six
Encoding: 54 54 447
Width: 1056
VWidth: 19
Flags: HW
LayerCount: 2
Fore
SplineSet
581 1330 m 0
 581 1330 251 885 233 862 c 0
 135 732 51 607 51 431 c 0
 51 165 258 -9 547 -9 c 0
 825 -9 1037 163 1037 426 c 0
 1037 676 844 847 588 847 c 0
 558 847 533 841 511 835 c 1
 900 1334 l 1
 584 1334 l 1
 581 1330 l 0
312 420 m 0
 312 561 375 659 540 659 c 0
 701 659 773 566 773 422 c 0
 773 283 689 189 537 189 c 0
 389 189 312 281 312 420 c 0
EndSplineSet
EndChar

StartChar: slash
Encoding: 47 47 448
Width: 828
VWidth: 19
Flags: HW
LayerCount: 2
Fore
SplineSet
38 -167 m 1
 249 -167 l 1
 805 1364 l 1
 591 1364 l 1
 38 -167 l 1
EndSplineSet
EndChar

StartChar: sterling
Encoding: 163 163 450
Width: 1006
VWidth: 19
Flags: HW
LayerCount: 2
Fore
SplineSet
218 446 m 0
 218 311 177 256 62 208 c 2
 55 205 l 1
 71 19 l 1
 983 19 l 1
 989 230 l 1
 442 230 l 0
 438 230 397 229 374 229 c 1
 436 293 457 377 457 481 c 0
 457 606 l 1
 800 606 l 1
 800 785 l 1
 457 785 l 1
 457 934 l 0
 457 1075 507 1155 633 1155 c 0
 720 1155 790 1122 867 1069 c 0
 875 1063 l 1
 977 1228 l 1
 971 1234 l 0
 880 1311 763 1361 623 1361 c 0
 329 1361 218 1153 218 869 c 0
 218 785 l 1
 53 785 l 1
 53 605 l 1
 218 605 l 1
 218 446 l 0
EndSplineSet
EndChar

StartChar: summation
Encoding: 8721 8721 451
Width: 1113
VWidth: 19
Flags: HW
LayerCount: 2
Fore
SplineSet
47 -298 m 1
 1095 -298 l 1
 1095 -105 l 1
 338 -105 l 1
 828 530 l 1
 362 1147 l 1
 1056 1147 l 1
 1056 1335 l 1
 65 1335 l 1
 65 1207 l 1
 585 523 l 1
 47 -175 l 1
 47 -298 l 1
EndSplineSet
EndChar

StartChar: t
Encoding: 116 116 452
Width: 690
VWidth: 19
Flags: HW
PickledData: "(dp1
S'org.robofab.postScriptHintData'
p2
(dp3
sS'com.typemytype.robofont.layerData'
p4
(dp5
s."
LayerCount: 2
Fore
SplineSet
3 853 m 1
 164 853 l 1
 164 392 l 0
 165 126 237 -13 504 -13 c 0
 608 -13 673 17 674 17 c 0
 681 20 l 1
 648 182 l 1
 638 177 l 0
 638 177 592 160 527 160 c 0
 428 160 412 222 412 386 c 0
 412 852 l 1
 652 852 l 1
 652 1017 l 1
 412 1017 l 1
 412 1268 l 1
 257 1268 l 1
 180 1016 l 1
 17 1004 l 1
 3 853 l 1
EndSplineSet
EndChar

StartChar: tau
Encoding: 964 964 453
Width: 407
VWidth: 19
Flags: HW
LayerCount: 2
Fore
SplineSet
342 610 m 0
 342 673 300 737 215 737 c 0
 131 737 87 673 87 610 c 0
 87 547 131 483 215 483 c 0
 300 483 342 547 342 610 c 0
EndSplineSet
EndChar

StartChar: theta
Encoding: 952 952 455
Width: 407
VWidth: 19
Flags: HW
LayerCount: 2
Fore
SplineSet
342 610 m 0
 342 673 300 737 215 737 c 0
 131 737 87 673 87 610 c 0
 87 547 131 483 215 483 c 0
 300 483 342 547 342 610 c 0
EndSplineSet
EndChar

StartChar: three
Encoding: 51 51 456
Width: 942
VWidth: 19
Flags: HW
LayerCount: 2
Fore
SplineSet
120 295 m 1
 48 108 l 1
 53 103 l 0
 135 33 282 -9 434 -9 c 0
 690 -9 904 122 904 373 c 0
 904 528 823 663 677 707 c 1
 802 760 868 863 868 1000 c 0
 868 1215 688 1363 441 1363 c 0
 276 1363 157 1327 55 1264 c 0
 48 1259 l 1
 119 1071 l 1
 129 1077 l 0
 203 1125 305 1159 419 1159 c 0
 556 1159 622 1071 622 981 c 0
 622 833 493 800 306 799 c 0
 246 799 l 1
 246 599 l 1
 306 599 l 1
 517 594 646 564 646 385 c 0
 646 273 565 196 435 196 c 0
 317 196 193 235 130 287 c 0
 120 295 l 1
EndSplineSet
EndChar

StartChar: threequarters
Encoding: 190 190 457
Width: 1482
VWidth: 19
Flags: HW
LayerCount: 2
Fore
SplineSet
122 769 m 1
 71 641 l 1
 77 636 l 0
 144 587 229 562 310 562 c 0
 456 562 594 644 594 808 c 0
 594 889 542 954 483 986 c 1
 567 1027 576 1114 576 1132 c 0
 576 1280 448 1346 321 1346 c 0
 228 1346 132 1314 69 1261 c 0
 63 1255 l 1
 127 1144 l 1
 136 1151 l 0
 172 1177 245 1201 308 1201 c 0
 374 1201 402 1170 402 1126 c 0
 402 1077 371 1043 273 1043 c 0
 193 1043 l 1
 193 902 l 1
 272 903 l 1
 371 903 423 874 423 810 c 0
 423 739 377 706 303 706 c 0
 247 706 171 725 133 759 c 0
 122 769 l 1
823 317 m 1
 823 179 l 1
 1179 179 l 1
 1179 19 l 1
 1338 19 l 1
 1339 179 l 1
 1444 179 l 1
 1442 318 l 1
 1340 318 l 1
 1340 820 l 1
 1169 820 l 1
 823 317 l 1
439 19 m 1
 1347 1347 l 1
 1149 1347 l 1
 235 19 l 1
 439 19 l 1
1019 318 m 1
 1177 575 l 1
 1177 508 1177 370 1177 318 c 1
 1019 318 l 1
EndSplineSet
EndChar

StartChar: tilde
Encoding: 732 732 458
Width: 690
VWidth: 19
Flags: HW
LayerCount: 2
Fore
SplineSet
484 1260 m 1
 453 1260 318 1345 197 1345 c 0
 49 1345 35 1207 35 1113 c 0
 35 1103 l 1
 182 1103 l 1
 182 1114 l 0
 183 1175 196 1193 217 1193 c 0
 274 1193 407 1103 508 1103 c 0
 656 1103 666 1249 666 1335 c 0
 666 1345 l 1
 516 1345 l 1
 516 1335 l 0
 515 1281 504 1261 484 1260 c 1
EndSplineSet
EndChar

StartChar: tonos
Encoding: 900 900 459
Width: 407
VWidth: 19
Flags: HW
LayerCount: 2
Fore
SplineSet
342 610 m 0
 342 673 300 737 215 737 c 0
 131 737 87 673 87 610 c 0
 87 547 131 483 215 483 c 0
 300 483 342 547 342 610 c 0
EndSplineSet
EndChar

StartChar: trademark
Encoding: 8482 8482 460
Width: 1605
VWidth: 19
Flags: HW
LayerCount: 2
Fore
SplineSet
703 1346 m 1
 703 595 l 1
 868 595 l 1
 868 1037 l 1
 924 896 980 755 1036 614 c 0
 1037 610 l 1
 1143 610 l 1
 1322 1046 l 1
 1322 595 l 1
 1484 595 l 1
 1484 1346 l 1
 1290 1346 l 1
 1096 862 l 1
 911 1346 l 1
 703 1346 l 1
281 1189 m 1
 281 595 l 1
 447 595 l 1
 447 1189 l 1
 665 1189 l 1
 665 1346 l 1
 56 1346 l 1
 57 1189 l 1
 281 1189 l 1
EndSplineSet
EndChar

StartChar: two
Encoding: 50 50 461
Width: 921
VWidth: 19
Flags: HW
LayerCount: 2
Fore
SplineSet
608 970 m 0
 608 885 548 769 467 680 c 2
 50 225 l 1
 56 19 l 1
 842 19 l 1
 859 214 l 1
 353 214 l 1
 618 494 l 0
 732 614 867 813 867 972 c 0
 867 1220 677 1363 430 1363 c 0
 267 1363 155 1319 63 1236 c 0
 58 1232 l 1
 134 1038 l 1
 144 1048 l 0
 208 1105 308 1158 417 1158 c 0
 527 1158 608 1077 608 970 c 0
EndSplineSet
EndChar

StartChar: u
Encoding: 117 117 462
Width: 1100
VWidth: 19
Flags: HW
PickledData: "(dp1
S'org.robofab.postScriptHintData'
p2
(dp3
sS'com.typemytype.robofont.layerData'
p4
(dp5
s."
LayerCount: 2
Fore
SplineSet
780 125 m 1
 804 0 l 1
 1011 0 l 1
 1011 1016 l 1
 757 1016 l 1
 757 520 l 0
 757 434 754 362 741 305 c 1
 705 228 622 172 525 172 c 0
 399 172 367 255 366 404 c 0
 366 1016 l 1
 112 1016 l 1
 112 377 l 0
 112 126 225 -24 460 -24 c 0
 601 -24 704 40 780 125 c 1
EndSplineSet
EndChar

StartChar: underscore
Encoding: 95 95 471
Width: 1012
VWidth: 19
Flags: HW
LayerCount: 2
Fore
SplineSet
973 -273 m 1
 973 -98 l 1
 59 -98 l 1
 59 -273 l 1
 973 -273 l 1
EndSplineSet
EndChar

StartChar: uni00AD
Encoding: 173 173 474
Width: 652
VWidth: 19
Flags: HW
LayerCount: 2
Fore
SplineSet
608 349 m 1
 608 551 l 1
 61 551 l 1
 61 349 l 1
 608 349 l 1
EndSplineSet
EndChar

StartChar: uni00B3
Encoding: 179 179 475
Width: 704
VWidth: 19
Flags: HW
LayerCount: 2
Fore
SplineSet
155 747 m 1
 104 615 l 1
 110 611 l 0
 178 562 262 536 343 536 c 0
 491 536 623 622 623 788 c 0
 623 872 568 938 508 971 c 1
 576 1003 604 1058 606 1122 c 1
 606 1279 484 1346 353 1346 c 0
 262 1346 178 1315 115 1264 c 0
 110 1259 l 1
 161 1143 l 1
 170 1151 l 0
 206 1177 281 1204 344 1204 c 0
 409 1204 436 1168 436 1120 c 0
 436 1068 405 1033 307 1033 c 0
 226 1033 l 1
 226 893 l 1
 305 894 l 1
 405 894 463 859 463 789 c 0
 463 713 416 677 342 677 c 0
 286 677 204 701 165 738 c 0
 155 747 l 1
EndSplineSet
EndChar

StartChar: uni00B9
Encoding: 185 185 476
Width: 655
VWidth: 19
Flags: HW
LayerCount: 2
Fore
SplineSet
129 534 m 1
 570 534 l 1
 570 686 l 1
 445 686 l 1
 445 1358 l 1
 302 1359 l 1
 299 1354 l 1
 283 1343 130 1266 117 1260 c 0
 112 1257 l 1
 112 1095 l 1
 126 1102 l 0
 132 1105 221 1147 255 1163 c 1
 255 686 l 1
 129 686 l 1
 129 534 l 1
EndSplineSet
EndChar

StartChar: uni018F
Encoding: 399 399 477
Width: 1277
VWidth: 19
Flags: HW
LayerCount: 2
Fore
SplineSet
54 733 m 1
 54 723 l 2
 54 707 52 672 53 646 c 0
 67 205 259 -18 581 -18 c 0
 945 -18 1204 257 1204 677 c 0
 1204 1061 964 1363 540 1363 c 0
 362 1363 222 1326 107 1236 c 0
 101 1231 l 1
 184 1054 l 1
 192 1059 l 0
 281 1111 392 1152 529 1152 c 0
 779 1152 920 997 940 733 c 1
 54 733 l 1
590 190 m 0
 400 190 314 331 296 529 c 1
 928 529 l 1
 894 328 782 190 590 190 c 0
EndSplineSet
EndChar

StartChar: uni0237
Encoding: 567 567 563
Width: 461
VWidth: 19
Flags: HW
LayerCount: 2
Fore
SplineSet
148 61 m 0
 148 -88 137 -127 -3 -127 c 2
 -44 -127 l 1
 -39 -322 l 1
 6 -322 l 0
 310 -322 379 -183 379 99 c 0
 379 988 l 1
 148 988 l 1
 148 61 l 0
EndSplineSet
EndChar

StartChar: uni0259
Encoding: 601 601 564
Width: 976
VWidth: 19
Flags: HW
LayerCount: 2
Fore
SplineSet
58 578 m 1
 58 569 l 2
 58 546 56 511 56 489 c 0
 56 213 194 -18 478 -18 c 0
 706 -18 947 215 947 515 c 0
 947 840 763 1049 443 1049 c 0
 283 1049 169 998 84 933 c 0
 78 928 l 1
 150 764 l 1
 160 772 l 0
 219 816 316 860 436 860 c 0
 597 860 694 762 702 578 c 1
 58 578 l 1
478 170 m 0
 358 170 286 257 283 419 c 1
 697 419 l 1
 679 229 569 170 478 170 c 0
EndSplineSet
EndChar

StartChar: uni0307
Encoding: 775 775 565
Width: 451
VWidth: 19
Flags: HW
LayerCount: 2
Fore
SplineSet
333 1095 m 1
 333 1307 l 1
 135 1307 l 1
 135 1095 l 1
 333 1095 l 1
EndSplineSet
EndChar

StartChar: uni030F
Encoding: 783 783 566
Width: 866
VWidth: 19
Flags: HW
LayerCount: 2
Fore
SplineSet
454 1083 m 1
 259 1405 l 1
 -13 1405 l 1
 282 1083 l 1
 454 1083 l 1
801 1083 m 1
 585 1405 l 1
 323 1405 l 1
 610 1083 l 1
 801 1083 l 1
EndSplineSet
EndChar

StartChar: uni0311
Encoding: 785 785 567
Width: 625
VWidth: 19
Flags: HW
LayerCount: 2
Fore
SplineSet
587 1122 m 0
 587 1273 452 1344 320 1344 c 0
 186 1344 49 1272 49 1122 c 0
 49 1112 l 1
 217 1112 l 1
 217 1122 l 0
 217 1180 265 1207 316 1207 c 0
 368 1207 418 1181 418 1122 c 0
 418 1112 l 1
 587 1112 l 1
 587 1122 l 0
EndSplineSet
EndChar

StartChar: uni0326
Encoding: 806 806 568
Width: 490
VWidth: 19
Flags: HW
LayerCount: 2
Fore
SplineSet
237 -599 m 1
 392 -120 l 1
 170 -120 l 1
 69 -599 l 1
 237 -599 l 1
EndSplineSet
EndChar

StartChar: uni2074
Encoding: 8308 8308 591
Width: 763
VWidth: 19
Flags: HW
LayerCount: 2
Fore
SplineSet
382 711 m 1
 382 557 l 1
 542 557 l 1
 543 711 l 1
 648 711 l 1
 634 868 l 1
 544 868 l 1
 544 1317 l 1
 386 1317 l 1
 69 832 l 1
 69 711 l 1
 382 711 l 1
380 868 m 1
 274 868 l 1
 380 1042 l 1
 380 868 l 1
EndSplineSet
EndChar

StartChar: uniFB01
Encoding: 64257 64257 592
Width: 1038
VWidth: 19
Flags: HW
LayerCount: 2
Fore
SplineSet
3 1016 m 1
 3 853 l 1
 157 853 l 1
 157 0 l 1
 401 0 l 1
 401 837 l 1
 706 837 l 1
 706 0 l 1
 953 0 l 1
 953 1016 l 1
 401 1016 l 1
 401 1067 l 0
 401 1187 413 1224 530 1224 c 0
 602 1224 l 1
 581 1412 l 1
 514 1412 l 0
 205 1412 159 1282 157 1035 c 0
 157 1016 l 1
 3 1016 l 1
953 1139 m 1
 953 1357 l 1
 706 1357 l 1
 706 1139 l 1
 953 1139 l 1
EndSplineSet
EndChar

StartChar: uniFB02
Encoding: 64258 64258 593
Width: 1227
VWidth: 19
Flags: HW
LayerCount: 2
Fore
SplineSet
579 1222 m 0
 650 1222 730 1213 772 1209 c 1
 772 428 l 0
 772 162 811 -12 1096 -12 c 0
 1164 -12 1206 -2 1226 1 c 1
 1235 2 l 1
 1222 185 l 1
 1212 184 l 0
 1199 183 1197 180 1156 180 c 0
 1024 180 1017 227 1017 390 c 0
 1017 1369 l 1
 1008 1370 l 0
 927 1375 702 1408 543 1408 c 0
 274 1408 159 1295 157 1047 c 0
 157 1016 l 1
 3 1016 l 1
 3 853 l 1
 157 853 l 1
 157 0 l 1
 402 0 l 1
 402 853 l 1
 611 853 l 1
 611 1016 l 1
 402 1016 l 1
 402 1067 l 0
 403 1181 432 1222 579 1222 c 0
EndSplineSet
EndChar

StartChar: upsilon
Encoding: 965 965 595
Width: 407
VWidth: 19
Flags: HW
LayerCount: 2
Fore
SplineSet
342 610 m 0
 342 673 300 737 215 737 c 0
 131 737 87 673 87 610 c 0
 87 547 131 483 215 483 c 0
 300 483 342 547 342 610 c 0
EndSplineSet
EndChar

StartChar: upsilondieresis
Encoding: 971 971 596
Width: 407
VWidth: 19
Flags: HW
LayerCount: 2
Fore
SplineSet
342 610 m 0
 342 673 300 737 215 737 c 0
 131 737 87 673 87 610 c 0
 87 547 131 483 215 483 c 0
 300 483 342 547 342 610 c 0
EndSplineSet
EndChar

StartChar: upsilondieresistonos
Encoding: 944 944 597
Width: 407
VWidth: 19
Flags: HW
LayerCount: 2
Fore
SplineSet
342 610 m 0
 342 673 300 737 215 737 c 0
 131 737 87 673 87 610 c 0
 87 547 131 483 215 483 c 0
 300 483 342 547 342 610 c 0
EndSplineSet
EndChar

StartChar: upsilontonos
Encoding: 973 973 598
Width: 407
VWidth: 19
Flags: HW
LayerCount: 2
Fore
SplineSet
342 610 m 0
 342 673 300 737 215 737 c 0
 131 737 87 673 87 610 c 0
 87 547 131 483 215 483 c 0
 300 483 342 547 342 610 c 0
EndSplineSet
EndChar

StartChar: v
Encoding: 118 118 601
Width: 986
VWidth: 19
Flags: HW
LayerCount: 2
Fore
SplineSet
390 0 m 1
 636 0 l 1
 1011 1017 l 1
 743 1017 l 1
 742 1003 l 1
 718 936 578 503 567 471 c 1
 560 453 530 331 516 275 c 1
 497 338 460 455 454 472 c 1
 264 1017 l 1
 -7 1017 l 1
 390 0 l 1
EndSplineSet
EndChar

StartChar: w
Encoding: 119 119 602
Width: 1510
VWidth: 19
Flags: HW
PickledData: "(dp1
S'org.robofab.postScriptHintData'
p2
(dp3
sS'com.typemytype.robofont.layerData'
p4
(dp5
s."
LayerCount: 2
Fore
SplineSet
305 0 m 1
 549 0 l 1
 551 13 l 1
 570 74 724 604 764 749 c 1
 806 599 947 74 965 13 c 1
 965 13 966 11 966 10 c 0
 966 9 966 10 966 11 c 1
 966 0 l 1
 1212 0 l 1
 1525 1017 l 1
 1269 1017 l 1
 1084 317 l 1
 1044 463 913 945 896 1003 c 1
 896 1006 895 1005 895 1007 c 0
 895 1008 895 1007 895 1006 c 1
 895 1017 l 1
 641 1017 l 1
 640 1003 l 1
 622 944 482 456 442 315 c 1
 263 1017 l 1
 4 1017 l 1
 305 0 l 1
EndSplineSet
EndChar

StartChar: x
Encoding: 120 120 607
Width: 1015
VWidth: 19
Flags: HW
PickledData: "(dp1
S'org.robofab.postScriptHintData'
p2
(dp3
sS'com.typemytype.robofont.layerData'
p4
(dp5
s."
LayerCount: 2
Fore
SplineSet
8 0 m 1
 295 0 l 1
 520 355 l 1
 740 0 l 1
 1031 0 l 1
 681 521 l 1
 1020 1017 l 1
 736 1017 l 1
 520 688 l 1
 313 1017 l 1
 25 1017 l 1
 361 520 l 1
 8 0 l 1
EndSplineSet
EndChar

StartChar: xi
Encoding: 958 958 608
Width: 407
VWidth: 19
Flags: HW
LayerCount: 2
Fore
SplineSet
342 610 m 0
 342 673 300 737 215 737 c 0
 131 737 87 673 87 610 c 0
 87 547 131 483 215 483 c 0
 300 483 342 547 342 610 c 0
EndSplineSet
EndChar

StartChar: y
Encoding: 121 121 609
Width: 978
VWidth: 19
Flags: HW
PickledData: "(dp1
S'org.robofab.postScriptHintData'
p2
(dp3
sS'com.typemytype.robofont.layerData'
p4
(dp5
s."
LayerCount: 2
Fore
SplineSet
33 -201 m 1
 46 -403 l 1
 54 -404 l 0
 94 -409 136 -411 177 -411 c 0
 378 -411 501 -323 587 -99 c 1
 591 -90 996 1003 996 1003 c 1
 1000 1017 l 1
 729 1017 l 1
 727 1010 l 0
 674 845 556 515 502 330 c 1
 257 1017 l 1
 -14 1017 l 1
 380 28 l 1
 367 -11 359 -39 347 -68 c 0
 305 -178 250 -209 148 -209 c 0
 113 -209 77 -208 44 -203 c 0
 33 -201 l 1
EndSplineSet
EndChar

StartChar: yen
Encoding: 165 165 613
Width: 1046
VWidth: 19
Flags: HW
LayerCount: 2
Fore
SplineSet
413 0 m 1
 666 0 l 1
 666 257 l 1
 975 257 l 1
 975 422 l 1
 666 422 l 1
 666 527 l 1
 975 527 l 1
 975 683 l 1
 738 683 l 1
 1119 1336 l 1
 847 1336 l 1
 537 784 l 1
 226 1336 l 1
 -51 1336 l 1
 337 683 l 1
 108 683 l 1
 108 527 l 1
 413 527 l 1
 413 422 l 1
 108 422 l 1
 108 257 l 1
 413 257 l 1
 413 0 l 1
EndSplineSet
EndChar

StartChar: z
Encoding: 122 122 615
Width: 853
VWidth: 19
Flags: HW
LayerCount: 2
Fore
SplineSet
519 832 m 1
 52 158 l 1
 52 3 l 1
 55 0 l 1
 822 0 l 1
 822 192 l 1
 364 192 l 1
 806 840 l 1
 806 1017 l 1
 74 1017 l 1
 74 832 l 1
 519 832 l 1
EndSplineSet
EndChar

StartChar: zero
Encoding: 48 48 619
Width: 1137
VWidth: 19
Flags: HW
LayerCount: 2
Fore
SplineSet
342 690 m 0
 344 935 394 1159 577 1159 c 0
 762 1159 811 933 811 687 c 0
 811 438 762 206 577 206 c 0
 392 206 342 440 342 690 c 0
1073 680 m 0
 1073 1038 943 1363 577 1363 c 0
 213 1363 82 1041 82 680 c 0
 82 327 209 1 577 1 c 0
 946 1 1073 327 1073 680 c 0
EndSplineSet
EndChar

StartChar: zeta
Encoding: 950 950 620
Width: 407
VWidth: 19
Flags: HW
LayerCount: 2
Fore
SplineSet
342 610 m 0
 342 673 300 737 215 737 c 0
 131 737 87 673 87 610 c 0
 87 547 131 483 215 483 c 0
 300 483 342 547 342 610 c 0
EndSplineSet
EndChar
